<?xml version="1.0" encoding="UTF-8"?>
<svg version="1.1" xmlns="http://www.w3.org/2000/svg" width="512" height="512">
<path d="M0 0 C168.96 0 337.92 0 512 0 C512 168.96 512 337.92 512 512 C343.04 512 174.08 512 0 512 C0 343.04 0 174.08 0 0 Z " fill="#FEFEFE" transform="translate(0,0)"/>
<path d="M0 0 C7.30685432 4.83709203 11.55960411 10.56088872 14 19 C14.74978868 24.47777557 14.67946577 29.99833996 14.59692383 35.51586914 C14.56250903 38.06183166 14.57633865 40.60432929 14.59570312 43.15039062 C14.5859905 54.26713562 13.71448969 63.95784437 5.765625 72.46875 C-2.18360228 79.36277012 -11.31548097 81.47909786 -21.6328125 81.32421875 C-27.356449 80.77310294 -33.28123068 79.24878513 -37.78515625 75.5234375 C-39 74 -39 74 -39.3125 71.4375 C-39 69 -39 69 -37 67 C-33.46782421 67.32110689 -30.36550494 67.87816502 -27 69 C-24.21554845 69.14880933 -21.47257615 69.23107 -18.6875 69.25 C-17.94048828 69.270625 -17.19347656 69.29125 -16.42382812 69.3125 C-10.82168023 69.35184783 -6.6440182 68.41164605 -2.35546875 64.5 C0.90163185 60.31696779 2.13867246 57.5683998 2.0625 52.3125 C2.05347656 51.50425781 2.04445312 50.69601563 2.03515625 49.86328125 C2.02355469 49.24839844 2.01195312 48.63351563 2 48 C1.34 48.7425 0.68 49.485 0 50.25 C-5.32559746 55.42807398 -10.29927757 57.2717684 -17.75 57.625 C-26.99595603 57.32770238 -34.58426839 53.95178334 -41 47.25 C-47.40804302 38.96184656 -49.28830137 30.37147665 -48 20 C-47.06780133 16.70490202 -45.75197766 13.93340997 -44 11 C-43.649375 10.37480469 -43.29875 9.74960938 -42.9375 9.10546875 C-33.78297844 -5.48454999 -14.41357618 -7.73251123 0 0 Z " fill="#636160" transform="translate(196,191)"/>
<path d="M0 0 C1.6309967 1.17930603 1.6309967 1.17930603 3 3 C3.38768005 5.49537659 3.38768005 5.49537659 3.40405273 8.50610352 C3.41673691 9.63480362 3.42942108 10.76350372 3.44248962 11.92640686 C3.43955399 13.14823166 3.43661835 14.37005646 3.43359375 15.62890625 C3.4388356 16.88831528 3.44407745 18.1477243 3.44947815 19.44529724 C3.45591065 22.11627229 3.45598172 24.78639627 3.44604492 27.45727539 C3.43462938 30.85435991 3.4546451 34.25039339 3.48396206 37.64733982 C3.50691834 40.91203191 3.49984618 44.1766525 3.49609375 47.44140625 C3.51294472 49.25288902 3.51294472 49.25288902 3.53013611 51.10096741 C3.45035753 60.88743886 1.5265126 69.16290065 -5.296875 76.46875 C-13.23670078 83.60730896 -21.55896347 85.603199 -32.1015625 85.4375 C-40.06242087 84.54409706 -46.5172488 80.98388316 -52 75.1875 C-57.98674706 67.40033756 -59.80569313 60.69253498 -59.5078125 50.79296875 C-58.33415957 42.02668416 -54.1107821 34.80646952 -47.12109375 29.40234375 C-39.61743801 24.44136325 -33.02339865 22.83682752 -24 24 C-17.45645725 25.69950346 -13.71881588 28.16984292 -9 33 C-8.98541748 32.10692139 -8.97083496 31.21384277 -8.95581055 30.29370117 C-8.89472923 26.97782722 -8.82057522 23.66278101 -8.73754883 20.34741211 C-8.70430999 18.91295372 -8.67627465 17.47836487 -8.65356445 16.04370117 C-8.61999729 13.98039193 -8.56768587 11.91827697 -8.51171875 9.85546875 C-8.48553467 8.61434326 -8.45935059 7.37321777 -8.43237305 6.09448242 C-8 3 -8 3 -6.62426758 1.0949707 C-4.28154366 -0.48433439 -2.76157943 -0.41423691 0 0 Z " fill="#63615F" transform="translate(361,163)"/>
<path d="M0 0 C9.18526508 4.92994453 15.77514238 12.5393208 19.0625 22.4375 C19.26228955 25.15286201 19.36666803 27.76253392 19.36328125 30.4765625 C19.36756638 31.23923431 19.3718515 32.00190613 19.37626648 32.78768921 C19.38198893 34.39295461 19.38252546 35.99824593 19.37817383 37.60351562 C19.37500111 40.06164369 19.39854127 42.51858192 19.42382812 44.9765625 C19.42610004 46.53906098 19.42680511 48.1015627 19.42578125 49.6640625 C19.434991 50.39847565 19.44420074 51.13288879 19.45368958 51.88955688 C19.40770657 56.9417397 19.40770657 56.9417397 17.69604492 59.39990234 C15.33750605 60.89800281 13.79808124 60.84783719 11.0625 60.4375 C9.25 59.4375 9.25 59.4375 8.0625 57.4375 C7.81582927 54.71875957 7.92768878 52.17866148 8.0625 49.4375 C7.4025 49.4375 6.7425 49.4375 6.0625 49.4375 C5.876875 49.994375 5.69125 50.55125 5.5 51.125 C3.17224807 54.8696444 -0.56342137 57.62396875 -4.75 59.05859375 C-13.19661186 60.52166759 -21.26290553 60.36335079 -28.75390625 55.984375 C-36.01634611 50.83960544 -41.22355185 44.33062721 -42.9375 35.4375 C-43.65568952 25.12043137 -43.08159842 16.97357723 -36.5 8.75 C-26.86906375 -1.23115211 -13.27029473 -5.23947844 0 0 Z " fill="#63615F" transform="translate(421.9375,188.5625)"/>
<path d="M0 0 C7.54942625 4.32743897 13.24735668 10.5350271 15.58010864 18.99424744 C16.31048168 22.48312035 16.28492827 25.93583071 16.265625 29.48828125 C16.26849518 30.66489571 16.26849518 30.66489571 16.27142334 31.86528015 C16.27277583 33.50988082 16.26914527 35.15449251 16.26074219 36.79907227 C16.24995654 39.32266872 16.26070577 41.845565 16.2734375 44.36914062 C16.27211715 45.97135574 16.26955734 47.57357042 16.265625 49.17578125 C16.26967346 49.93095535 16.27372192 50.68612946 16.27789307 51.46418762 C16.22997097 56.77002903 16.22997097 56.77002903 14 59 C11 59.25 11 59.25 8 59 C5.60236815 56.60236815 5.65719414 55.66726502 5.375 52.375 C5.30023438 51.55773437 5.22546875 50.74046875 5.1484375 49.8984375 C5.09945312 49.27195313 5.05046875 48.64546875 5 48 C4.2265625 49.11375 4.2265625 49.11375 3.4375 50.25 C-1.00587955 55.26304359 -6.24542818 57.6438753 -12.8828125 58.2734375 C-20.89165074 58.52431677 -26.28889776 57.40492347 -33 53 C-33.58523437 52.62746094 -34.17046875 52.25492188 -34.7734375 51.87109375 C-40.51824271 47.686426 -43.74478863 40.57769984 -46 34 C-47.34662681 24.35349063 -45.35194748 17.05745736 -40 9 C-30.29742656 -3.52966361 -14.29864075 -6.40057399 0 0 Z " fill="#63615F" transform="translate(117,190)"/>
<path d="M0 0 C7.89992854 4.75580983 13.07555351 11.22666052 16 20 C16.87064807 30.97587479 15.77591387 39.55176537 8.875 48.3125 C2.57692016 55.04681047 -5.89217054 58.12945472 -14.9375 58.4375 C-23.67907238 58.50526413 -30.42568705 55.87822185 -37.15625 50.171875 C-43.49487912 43.5646599 -46.17546501 36.19561717 -46.625 27.125 C-46.32437813 17.91595005 -42.90391146 10.33953868 -36.1875 4 C-25.75320887 -4.0369587 -12.06336007 -6.32535734 0 0 Z " fill="#656361" transform="translate(271,190)"/>
<path d="M0 0 C7.44229326 4.11555388 13.35955927 10.82564521 15.98046875 18.96875 C17.0585966 27.62781894 16.20177383 34.853204 10.98046875 41.96875 C4.5193874 49.16683683 -1.7373474 52.92621158 -11.39453125 53.46875 C-19.492148 53.2438162 -26.09071732 49.28456863 -32.01953125 43.96875 C-37.50489025 36.17501867 -39.56985076 28.38901205 -38.01953125 18.96875 C-35.37894443 10.33559858 -29.85810816 4.86234183 -22.25 0.3125 C-15.49906305 -2.49562855 -6.91456272 -2.36150654 0 0 Z " fill="#FF2B3A" transform="translate(113.01953125,296.03125)"/>
<path d="M0 0 C7.14619612 4.4306416 13.12216645 9.52301957 15.703125 17.7890625 C17.34075152 26.12882717 16.52858865 33.66578453 12.125 40.9375 C8.20978989 46.7543836 2.85499724 50.45524538 -3.83203125 52.55078125 C-11.40471977 53.98423472 -17.84614681 53.35539164 -24.5859375 49.546875 C-31.07724903 44.98301775 -35.76392197 38.61188954 -37.875 30.9375 C-39.13332172 22.84150554 -37.35937267 16.71934579 -32.875 9.9375 C-30.375 7.0625 -30.375 7.0625 -27.875 4.9375 C-27.05 4.215625 -26.225 3.49375 -25.375 2.75 C-18.44648318 -2.27317469 -8.02749418 -3.01031032 0 0 Z " fill="#03ABDF" transform="translate(420.875,296.0625)"/>
<path d="M0 0 C7.16118632 4.03019866 12.92842864 9.73603726 15.484375 17.6640625 C17.2400253 25.93448129 16.24667826 33.5836839 11.95703125 40.890625 C6.58069017 48.06320907 0.0793324 51.97096603 -8.7734375 53.30078125 C-16.83250627 53.74408687 -22.72286278 51.15139464 -29.08203125 46.3515625 C-34.60512581 41.39252866 -37.41963979 35.44670985 -38.421875 28.12109375 C-38.77928721 19.87755417 -36.36579588 13.61636814 -31.35546875 7.140625 C-23.0658944 -1.64018338 -11.42562143 -4.16543836 0 0 Z " fill="#FCB814" transform="translate(190.04296875,296.109375)"/>
<path d="M0 0 C7.3358768 3.3519314 11.90557 8.58139463 15.9765625 15.41015625 C18.57488909 24.58072069 17.48374635 32.79550816 13.0390625 41.16015625 C9.51812253 46.81880978 4.13562351 49.71509445 -1.7734375 52.47265625 C-9.71771299 54.18612743 -16.44052179 53.87648135 -23.6015625 49.83984375 C-30.05585653 45.24489933 -35.45349582 39.09639334 -36.9609375 31.16015625 C-37.87218934 23.02397907 -36.09951286 17.12048099 -32.2734375 10.03515625 C-23.99755487 -0.25377891 -12.74156995 -3.61403369 0 0 Z " fill="#02AF57" transform="translate(265.9609375,295.83984375)"/>
<path d="M0 0 C7.65869328 4.84529575 13.3150556 10.06211508 16.0625 18.9375 C17.49673838 28.54562794 15.05936345 36.06759689 10.0625 44.1875 C4.6650228 49.96461627 -3.2637779 53.27279965 -11.0625 53.625 C-19.19551288 53.14658748 -25.35338762 49.99996604 -30.875 44.0625 C-36.76666866 37.14304639 -37.73556388 29.69884137 -37.41015625 20.89453125 C-36.59922295 14.10547808 -33.89365076 9.6444733 -28.8984375 5.0703125 C-26.96190679 3.55445138 -25.04606378 2.20093093 -22.9375 0.9375 C-22.05384766 0.37482422 -22.05384766 0.37482422 -21.15234375 -0.19921875 C-15.4371813 -2.42682175 -5.80007327 -2.18514388 0 0 Z " fill="#AE39B0" transform="translate(343.9375,296.0625)"/>
<path d="M0 0 C4.97728345 2.84128326 8.2832433 6.90401115 11.125 11.8125 C12.85146686 19.06366079 11.95493421 24.63672086 8.3828125 31.19921875 C5.15620718 35.62229255 0.84338515 37.73970495 -4.25 39.4375 C-11.08632503 40.17820307 -16.60739328 39.53435922 -22.25 35.4375 C-27.27180504 30.65847943 -29.55219238 26.14854087 -29.75 19.25 C-29.64356951 12.4840618 -27.89972544 8.31918453 -23.25 3.4375 C-16.6957054 -2.2051661 -7.94822862 -3.5835944 0 0 Z " fill="#FCFCFC" transform="translate(111.25,198.5625)"/>
<path d="M0 0 C6.04478424 6.17911278 7.41357915 11.13726703 7.34765625 19.66015625 C6.71139671 25.77253719 3.83688429 29.25495993 -0.5 33.375 C-6.51583312 37.28529153 -11.97392201 37.66225183 -19 37 C-25.12641397 34.8444099 -29.14095954 30.84749071 -32.3125 25.25 C-34.68747951 20.09290164 -35.01947073 15.29970705 -33.33984375 9.86328125 C-30.65806957 3.76833993 -26.29654828 -0.14040866 -20.5625 -3.375 C-13.12427101 -5.18920219 -6.53159058 -3.94730516 0 0 Z " fill="#FCFCFC" transform="translate(423,201)"/>
<path d="M0 0 C4.97728345 2.84128326 8.2832433 6.90401115 11.125 11.8125 C12.6551834 18.23927029 12.35641558 23.77171381 9.0859375 29.58203125 C5.81078521 34.13085387 1.2741864 38.12221752 -4.25 39.4375 C-10.30281546 40.07893516 -15.95171602 39.61647039 -21.25 36.4375 C-25.86786494 32.2906368 -28.80343117 27.84552528 -29.62109375 21.60546875 C-29.77795645 14.5651015 -29.1408264 9.70642021 -24.25 4.4375 C-17.24901537 -1.69027649 -8.75037166 -3.94525427 0 0 Z " fill="#FCFCFC" transform="translate(188.25,198.5625)"/>
<path d="M0 0 C3.87574962 3.37885864 6.70564656 7.60409994 7.3359375 12.734375 C7.43292256 20.22162169 6.82048541 25.90737042 1.57421875 31.52734375 C-3.94563582 36.44814433 -9.11010453 37.47231976 -16.28515625 37.30859375 C-22.0879498 36.64899563 -25.4776202 33.78455517 -29.3125 29.5625 C-33.1972196 24.66257368 -34.48488589 20.57875313 -34.30859375 14.3359375 C-33.4345152 7.71949481 -29.87203558 3.20531588 -24.71875 -0.8125 C-16.72793427 -6.33342723 -8.03130881 -4.50637981 0 0 Z " fill="#FCFCFC" transform="translate(346,201)"/>
<path d="M0 0 C4.98175994 2.85971209 8.89984975 6.70487421 10.625 12.25 C10.66625 13.301875 10.7075 14.35375 10.75 15.4375 C10.79898438 16.22511719 10.84796875 17.01273438 10.8984375 17.82421875 C11.10505083 23.14053873 10.90802681 26.95513936 7.75 31.4375 C2.67379958 36.65157253 -2.11277406 39.69172165 -9.5625 39.875 C-16.14664747 39.74207643 -20.21691969 37.46301652 -24.81640625 32.875 C-29.67404873 27.33922509 -29.64652237 22.45701763 -29.25 15.4375 C-28.22546976 9.39277156 -25.76067432 5.46898029 -21.25 1.4375 C-14.64329295 -2.50111382 -7.07839345 -3.13993744 0 0 Z " fill="#FCFCFC" transform="translate(265.25,198.5625)"/>
</svg>
