<?xml version="1.0" encoding="UTF-8"?>
<svg version="1.1" xmlns="http://www.w3.org/2000/svg" width="900" height="900">
<path d="M0 0 C297 0 594 0 900 0 C900 297 900 594 900 900 C603 900 306 900 0 900 C0 603 0 306 0 0 Z " fill="#01CD55" transform="translate(0,0)"/>
<path d="M0 0 C10.04131689 -0.2158058 18.57726956 2.1422083 28.08984375 5.12109375 C28.08984375 5.78109375 28.08984375 6.44109375 28.08984375 7.12109375 C28.85296875 7.22421875 29.61609375 7.32734375 30.40234375 7.43359375 C33.33327033 8.18336567 34.10501537 8.95582642 36.08984375 11.12109375 C37.07984375 11.45109375 38.06984375 11.78109375 39.08984375 12.12109375 C40.81758283 13.74894548 42.45109008 15.40686254 44.08984375 17.12109375 C45.38201524 18.41876018 46.67721481 19.71341492 47.97460938 21.00585938 C57.71809896 30.74934896 67.46158854 40.49283854 77.20507812 50.23632812 C78.21809998 51.249282 78.21809998 51.249282 79.25158691 52.28269958 C80.37669241 53.40788914 81.50164769 54.53322895 82.62634277 55.65882874 C84.68042962 57.71441266 86.74040373 59.76324132 88.80859375 61.8046875 C97.22160092 70.13498252 97.22160092 70.13498252 99.77734375 73.37109375 C102.30166618 76.37299069 105.05789291 78.78047116 108.02734375 81.328125 C112.93065832 85.59066551 116.74491539 88.98820418 119.08984375 95.12109375 C120.41472488 95.4865782 121.75002889 95.81485035 123.08984375 96.12109375 C126.03591125 98.75704888 128.55587486 101.66232315 131.08984375 104.68359375 C133.52179521 107.56337258 136.09538983 109.81766766 139.08984375 112.12109375 C141.88908118 114.77678054 144.44583276 117.52836291 146.90234375 120.49609375 C149.03441303 123.01828483 151.24806789 125.20447622 153.765625 127.33984375 C158.16640853 131.14655431 162.33582713 135.14806412 166.46484375 139.24609375 C167.17511719 139.93574219 167.88539063 140.62539063 168.6171875 141.3359375 C169.29652344 142.01011719 169.97585938 142.68429687 170.67578125 143.37890625 C171.28470215 143.97848145 171.89362305 144.57805664 172.52099609 145.19580078 C174.30162353 147.38099031 175.16983668 149.47071958 176.08984375 152.12109375 C176.74984375 152.12109375 177.40984375 152.12109375 178.08984375 152.12109375 C179.53295898 153.58325195 179.53295898 153.58325195 181.2109375 155.609375 C184.99410132 160.05652667 189.01366265 164.19353976 193.15234375 168.30859375 C193.83361328 168.99373047 194.51488281 169.67886719 195.21679688 170.38476562 C197.15453621 172.31878212 199.1145429 174.22552982 201.08984375 176.12109375 C201.63624512 176.66072754 202.18264648 177.20036133 202.74560547 177.75634766 C204.40675469 179.36229887 204.40675469 179.36229887 207.08984375 181.12109375 C210.09057631 180.93654382 211.62016733 180.54402702 213.86883664 178.51914984 C214.39877815 177.85131757 214.92871966 177.1834853 215.47472 176.49541569 C218.77643556 172.48950307 222.26236328 168.80026556 225.93182373 165.13194275 C226.90920592 164.14904553 226.90920592 164.14904553 227.90633321 163.14629179 C230.06769856 160.97400469 232.23254322 158.80522097 234.39746094 156.63647461 C235.95716301 155.07049946 237.51667749 153.50433744 239.07601929 151.93800354 C244.1760114 146.817079 249.28124176 141.70139272 254.38671875 136.5859375 C256.14943941 134.81916603 257.91212694 133.05236149 259.6747818 131.28552437 C267.00757321 123.93588437 274.34146977 116.58735061 281.67905807 109.24249935 C283.57706395 107.34258403 285.47506433 105.44266323 287.37304688 103.54272461 C288.08052853 102.83451734 288.08052853 102.83451734 288.80230275 102.11200286 C296.44474718 94.46125554 304.0786286 86.80202336 311.70897684 79.13921397 C319.56322448 71.25182818 327.42521625 63.37221901 335.29428983 55.49962336 C339.70426408 51.08730317 344.11089801 46.67176666 348.5094223 42.24802971 C352.64734303 38.08677084 356.79475401 33.93520743 360.94948196 29.79073143 C362.46740624 28.27330112 363.98194922 26.75247921 365.49272537 25.22793198 C379.64092622 10.95807061 392.90811621 0.26162625 413.96484375 -0.00390625 C416.00674539 0.02396089 418.048527 0.06483699 420.08984375 0.12109375 C420.86585938 0.13785156 421.641875 0.15460938 422.44140625 0.171875 C437.92898393 1.15744813 451.76110711 11.30639641 461.75488281 22.51123047 C472.17134272 35.07270388 475.23052152 49.84596451 473.86328125 65.7578125 C473.62988357 67.8817314 473.36328068 70.00195755 473.08984375 72.12109375 C472.42984375 72.12109375 471.76984375 72.12109375 471.08984375 72.12109375 C470.75984375 75.09109375 470.42984375 78.06109375 470.08984375 81.12109375 C469.42984375 81.12109375 468.76984375 81.12109375 468.08984375 81.12109375 C467.75984375 83.10109375 467.42984375 85.08109375 467.08984375 87.12109375 C466.42984375 87.12109375 465.76984375 87.12109375 465.08984375 87.12109375 C464.72519138 88.46044826 464.72519138 88.46044826 464.3531723 89.82686043 C462.98293993 93.39985426 461.56690448 95.14231675 458.87658691 97.8288269 C457.99324173 98.72056107 457.10989655 99.61229523 456.19978333 100.53105164 C455.21866796 101.50120191 454.2373533 102.47115067 453.25585938 103.44091797 C452.22349466 104.47542988 451.19199678 105.51080745 450.16130066 106.54698181 C447.36675039 109.35120665 444.55989363 112.14280499 441.7503643 114.93201208 C438.81255305 117.85223705 435.88531005 120.78302063 432.95666504 123.71243286 C428.04056644 128.62666007 423.11679186 133.5330876 418.18798828 138.43457031 C412.48383334 144.10722376 406.79025033 149.79031395 401.10255861 155.47947109 C395.63351353 160.94973506 390.15878497 166.41427142 384.68083191 171.87561417 C382.34756236 174.20181009 380.01601044 176.52970803 377.68574524 178.85891342 C374.9457333 181.59692226 372.200699 184.32979445 369.45162392 187.05870247 C368.44126566 188.06320043 367.43261179 189.06941593 366.42575645 190.077425 C365.0561559 191.4480012 363.67982003 192.81183722 362.30310059 194.17526245 C361.5332357 194.94177565 360.76337082 195.70828884 359.9701767 196.49802971 C358.08984375 198.12109375 358.08984375 198.12109375 356.08984375 198.12109375 C355.99703125 198.95640625 355.99703125 198.95640625 355.90234375 199.80859375 C354.98788159 202.41129374 353.67755185 203.70550217 351.6796875 205.55859375 C348.9637752 208.22779503 346.58915354 211.20962333 344.15234375 214.1328125 C341.90222969 216.30195655 339.97650341 217.02396804 337.08984375 218.12109375 C336.39326012 219.77547988 335.72887492 221.44363693 335.08984375 223.12109375 C332.77734375 225.12109375 332.77734375 225.12109375 330.08984375 227.12109375 C327.6143069 229.4758727 325.35070867 231.77927075 323.27734375 234.49609375 C321.50447436 236.62353702 319.94917786 238.1415562 317.85229492 239.89208984 C311.13739157 245.71349192 304.97094483 252.117363 298.703125 258.41015625 C297.31428149 259.80086875 295.92521413 261.19135774 294.53593445 262.58163452 C290.89758711 266.22377859 287.26225139 269.86891395 283.62756348 273.51470947 C279.93125863 277.22125424 276.23211656 280.92496502 272.53320312 284.62890625 C266.56060666 290.61026478 260.58971883 296.59332238 254.62113953 302.57868958 C254.09573578 303.10553848 253.57033203 303.63238739 253.02900696 304.17520142 C252.53364252 304.67217152 252.03827808 305.16914162 251.5279026 305.68117142 C250.12484306 307.08604908 248.71722416 308.48636861 247.30949402 309.88656616 C245.35340862 311.85576232 243.55626769 313.86844775 241.77734375 315.99609375 C238.7473862 319.50793997 235.46867194 322.47362375 231.93359375 325.46484375 C230.25438595 326.97328465 228.86730215 328.48403063 227.46484375 330.24609375 C224.92726067 333.31790484 222.17704497 335.61274276 219.08984375 338.12109375 C215.79119607 341.26266297 212.87188901 344.51473879 210.08984375 348.12109375 C206.59421635 346.62416099 204.34695239 344.62090885 201.67602539 341.93432617 C200.81155289 341.06970261 199.94708038 340.20507904 199.05641174 339.31425476 C198.13029587 338.37781631 197.20417999 337.44137787 196.25 336.4765625 C195.28164325 335.5044707 194.31284036 334.53282316 193.34361267 333.56159973 C190.79459283 331.00495523 188.25162855 328.44236954 185.7098999 325.878479 C183.13505614 323.28325362 180.554624 320.69359872 177.97460938 318.10351562 C173.423449 313.53323723 168.87724064 308.95807738 164.33460999 304.37931824 C160.88029706 300.90429535 157.41483619 297.44051869 153.93945312 293.98657227 C150.82295432 290.88790603 147.70953538 287.78616519 144.59716797 284.68334961 C143.2598467 283.35107054 141.92163114 282.01968852 140.58251953 280.68920898 C138.63464613 278.75353071 136.69007883 276.81458231 134.74609375 274.875 C134.15324585 274.28731339 133.56039795 273.69962677 132.94958496 273.09413147 C129.44156949 269.58658572 126.23570632 265.95588459 123.08984375 262.12109375 C121.80950514 260.93943249 120.49957698 259.7883801 119.15234375 258.68359375 C115.93337041 255.94686361 113.26889025 253.0666679 110.58984375 249.8125 C108.55350927 247.51632076 106.27888313 245.60525516 103.8984375 243.67578125 C101.49842899 241.61270698 99.31884539 239.36872214 97.08984375 237.12109375 C95.76184355 235.82535889 94.43228799 234.53121706 93.1015625 233.23828125 C91.66000644 231.82437147 90.21860342 230.41030565 88.77734375 228.99609375 C87.66649414 227.92294922 87.66649414 227.92294922 86.53320312 226.828125 C85.83388672 226.13847656 85.13457031 225.44882812 84.4140625 224.73828125 C83.45632935 223.80411377 83.45632935 223.80411377 82.47924805 222.85107422 C81.08984375 221.12109375 81.08984375 221.12109375 81.08984375 218.12109375 C80.49179932 218.01651855 79.89375488 217.91194336 79.27758789 217.80419922 C76.74359893 217.0129816 75.84078266 216.15401996 74.0859375 214.19140625 C73.51891113 213.56967529 72.95188477 212.94794434 72.36767578 212.30737305 C71.76036621 211.62715088 71.15305664 210.94692871 70.52734375 210.24609375 C63.64340813 202.69392454 56.4894785 195.46442454 49.17358398 188.33056641 C48.39571533 187.56405762 47.61784668 186.79754883 46.81640625 186.0078125 C46.12111816 185.32936279 45.42583008 184.65091309 44.70947266 183.9519043 C43.08984375 182.12109375 43.08984375 182.12109375 42.08984375 179.12109375 C41.42984375 178.79109375 40.76984375 178.46109375 40.08984375 178.12109375 C40.08984375 177.46109375 40.08984375 176.80109375 40.08984375 176.12109375 C39.42984375 176.12109375 38.76984375 176.12109375 38.08984375 176.12109375 C38.08984375 175.46109375 38.08984375 174.80109375 38.08984375 174.12109375 C37.5268457 173.88479248 36.96384766 173.64849121 36.38378906 173.4050293 C33.55729465 171.82302269 31.65379776 169.89245366 29.38671875 167.578125 C28.48824219 166.66869141 27.58976562 165.75925781 26.6640625 164.82226562 C25.72227444 163.85974844 24.7808702 162.89685556 23.83984375 161.93359375 C18.27704974 156.26517706 12.76088137 150.64676827 6.67553711 145.53466797 C4.52580408 143.61827779 2.86268138 141.38299003 1.08984375 139.12109375 C-0.56018453 137.76722439 -2.22759495 136.43431233 -3.91015625 135.12109375 C-7.80764727 131.43427792 -11.32201078 127.43977646 -14.84765625 123.40234375 C-17.12244121 120.88629372 -19.49927397 118.50708492 -21.91015625 116.12109375 C-22.93981611 115.08173275 -23.9684097 114.04131465 -24.99609375 113 C-30.46618525 107.4772006 -35.91162915 102.07639874 -41.91015625 97.12109375 C-44.5813635 94.760492 -46.01789091 92.30908867 -47.59765625 89.12109375 C-48.03464844 88.25484375 -48.47164062 87.38859375 -48.921875 86.49609375 C-49.91015625 84.12109375 -49.91015625 84.12109375 -49.91015625 81.12109375 C-50.57015625 81.12109375 -51.23015625 81.12109375 -51.91015625 81.12109375 C-57.30888071 66.75844942 -57.85451611 50.43844298 -51.91015625 36.12109375 C-46.83655367 25.4649862 -40.82745958 16.66881139 -30.91015625 10.12109375 C-30.28367188 9.68023437 -29.6571875 9.239375 -29.01171875 8.78515625 C-20.02243801 2.73115086 -10.66838997 0.44391958 0 0 Z " fill="#FDFEFE" transform="translate(238.91015625,178.87890625)"/>
<path d="M0 0 C0.02288496 45.4709087 0.0405077 90.9418168 0.05106533 136.41273013 C0.05231605 141.78003624 0.05361037 147.14734234 0.05493164 152.51464844 C0.05519395 153.58319004 0.05545626 154.65173165 0.05572652 155.7526533 C0.06007875 173.05814186 0.06796386 190.3636271 0.0771528 207.6691137 C0.08650174 225.42390695 0.09205825 243.17869847 0.09408849 260.93349409 C0.09546114 271.89061218 0.09979778 282.84772089 0.10791647 293.80483609 C0.11319921 301.31681652 0.1148008 308.82879209 0.11350138 316.34077424 C0.1128604 320.67584217 0.11384847 325.01089369 0.11920547 329.34595871 C0.12407577 333.31616 0.12431477 337.28633387 0.12089889 341.25653642 C0.12047678 342.69139391 0.12174184 344.12625311 0.12488318 345.56110722 C0.13910932 352.46138085 0.08720949 359.17755394 -1 366 C-1.66 366 -2.32 366 -3 366 C-3.0825 367.155 -3.165 368.31 -3.25 369.5 C-3.83879027 374.26078993 -5.69580287 377.85244517 -8 382 C-8.5775 383.155 -9.155 384.31 -9.75 385.5 C-10.1625 386.325 -10.575 387.15 -11 388 C-11.66 388 -12.32 388 -13 388 C-13.20625 388.53625 -13.4125 389.0725 -13.625 389.625 C-16.62829116 394.81250291 -20.87467606 398.22022424 -26.15625 401 C-28.14737684 402.0799332 -29.99072735 403.30631823 -31.875 404.5625 C-44.0953822 412.24455844 -59.14072635 412.17400371 -73 410 C-73 409.34 -73 408.68 -73 408 C-75.97 407.67 -78.94 407.34 -82 407 C-82 406.34 -82 405.68 -82 405 C-82.928125 404.896875 -83.85625 404.79375 -84.8125 404.6875 C-88.22006102 403.95253586 -88.79821448 403.48897494 -91 401 C-92.14082031 400.33871094 -92.14082031 400.33871094 -93.3046875 399.6640625 C-100.21296761 395.39895043 -105.45039049 389.22599079 -109 382 C-109.43183594 381.16984375 -109.86367188 380.3396875 -110.30859375 379.484375 C-113.91271573 372.50075055 -115.13039447 367.82366795 -115 360 C-115.66 360 -116.32 360 -117 360 C-117.27409096 329.13734096 -117.4862894 298.27496176 -117.61278395 267.41137533 C-117.6277914 263.76293637 -117.64332337 260.11449982 -117.65917969 256.46606445 C-117.66232741 255.73976448 -117.66547514 255.01346452 -117.66871825 254.26515546 C-117.72085318 242.52388288 -117.81542141 230.78331947 -117.92583355 219.0424668 C-118.03828112 206.98408597 -118.10475303 194.92607506 -118.12906194 182.86719149 C-118.1440126 176.0982239 -118.17979045 169.33073134 -118.26876068 162.56229591 C-118.35050033 156.18505303 -118.37528268 149.81006906 -118.35729218 143.43235207 C-118.36058092 141.09786683 -118.3842857 138.76330244 -118.4304657 136.4292717 C-118.79605607 116.99042357 -118.79605607 116.99042357 -113.15971768 110.29434621 C-111.0820946 108.17367332 -108.90452514 106.23504874 -106.61016941 104.35235274 C-104.11141719 102.25369505 -101.91138063 99.88483644 -99.66012573 97.52641296 C-97.8473397 95.70484376 -96.03198756 93.88582545 -94.21435547 92.0690918 C-93.20087093 91.05260238 -92.18758697 90.03591294 -91.17448425 89.01904297 C-88.46884423 86.30471128 -85.76010607 83.59349358 -83.05043936 80.88318229 C-81.3546022 79.18662813 -79.6594815 77.4893614 -77.96460342 75.79184914 C-72.04498604 69.86304032 -66.12285337 63.93675792 -60.19824219 58.01293945 C-54.68119514 52.49649733 -49.16979877 46.97445274 -43.66091049 41.44986409 C-38.91433692 36.69024625 -34.16394794 31.93445972 -29.41052735 27.18168002 C-26.57797128 24.34937909 -23.74699546 21.51554126 -20.91985703 18.67783165 C-18.27297462 16.02131639 -15.62139888 13.36957989 -12.96604347 10.72153473 C-11.99113609 9.74767795 -11.01794921 8.77209547 -10.04657936 7.79471016 C-8.72566917 6.46614695 -7.39804474 5.14426916 -6.07003784 3.82279968 C-5.32790983 3.08012691 -4.58578182 2.33745413 -3.82116508 1.57227612 C-2 0 -2 0 0 0 Z " fill="#FDFEFE" transform="translate(713,306)"/>
<path d="M0 0 C0.66 0 1.32 0 2 0 C3.36176922 1.64351457 4.68962066 3.31522656 6 5 C9.1628559 8.34890625 12.55479799 11.38588932 16 14.4375 C18.76056936 16.90040088 21.38904094 19.28579089 23.6875 22.1875 C26.02713691 25.03300435 28.49421004 27.21998763 31.3046875 29.57421875 C35.76549785 33.32582193 38.82499378 37.05016716 41.59375 42.1328125 C43.39372296 44.52277659 45.40996415 45.52715872 48 47 C53.2277989 51.16561361 57.75456357 55.75863985 62.046875 60.86328125 C64.41854469 63.45788789 66.99131839 65.73514232 69.625 68.0625 C73.78572043 71.77681577 77.11609593 75.22664154 80 80 C80 80.66 80 81.32 80 82 C80.87180908 82.14163574 80.87180908 82.14163574 81.76123047 82.28613281 C84.5109602 83.16292777 85.77954856 84.39195795 87.8203125 86.421875 C88.52027344 87.11796875 89.22023438 87.8140625 89.94140625 88.53125 C90.66199219 89.2634375 91.38257813 89.995625 92.125 90.75 C92.85332031 91.46671875 93.58164062 92.1834375 94.33203125 92.921875 C95.02941406 93.623125 95.72679687 94.324375 96.4453125 95.046875 C97.07969238 95.68463867 97.71407227 96.32240234 98.36767578 96.97949219 C100.16506678 99.20432137 100.96346949 101.35467009 102 104 C103.32796291 104.35412344 104.66216607 104.68521554 106 105 C110 109.33333333 110 109.33333333 110 112 C110.61875 112.103125 111.2375 112.20625 111.875 112.3125 C114 113 114 113 116 116 C116.24954766 117.92907596 116.24954766 117.92907596 116.24888897 120.16022873 C116.25348777 121.0118335 116.25808656 121.86343828 116.26282471 122.74084926 C116.25768115 123.67672728 116.25253759 124.6126053 116.24723816 125.57684326 C116.24965257 126.57085435 116.25206699 127.56486544 116.25455457 128.58899808 C116.26021127 131.9353745 116.2515134 135.2815617 116.24291992 138.62792969 C116.24399234 141.02092541 116.24593042 143.41392089 116.24867249 145.80691528 C116.25302619 151.64225917 116.24806704 157.47755164 116.23882218 163.31288573 C116.22844213 170.10906933 116.2285083 176.90524067 116.22899476 183.70143071 C116.22949566 195.83091367 116.220328 207.9603703 116.20581055 220.08984375 C116.19173508 231.85612468 116.18463923 243.62238241 116.18530273 255.38867188 C116.18536267 256.47479327 116.18536267 256.47479327 116.18542381 257.58285651 C116.18546417 258.30569056 116.18550452 259.02852462 116.1855461 259.77326274 C116.1862366 273.1683012 116.18034046 286.56332981 116.17139288 299.95836507 C116.16837965 304.69350377 116.16731367 309.42864066 116.16686058 314.16378021 C116.16585566 320.54292233 116.15974676 326.92204009 116.14969444 333.30117416 C116.14677446 335.64289323 116.14554306 337.98461509 116.14612198 340.32633591 C116.14661312 343.52265719 116.14095238 346.71891037 116.13371277 349.91522217 C116.13526137 350.8421773 116.13680997 351.76913244 116.1384055 352.72417712 C116.1138702 359.28353864 115.71088805 365.5152957 113.5 371.75 C113.2421875 372.48734375 112.984375 373.2246875 112.71875 373.984375 C112.4815625 374.64953125 112.244375 375.3146875 112 376 C111.67 376.99 111.34 377.98 111 379 C110.34 379 109.68 379 109 379 C108.9175 379.70125 108.835 380.4025 108.75 381.125 C107.22073637 386.98717726 103.29828721 390.92213777 99 395 C98.505 395.53625 98.01 396.0725 97.5 396.625 C95.52134385 398.43876813 93.31310646 399.64598646 91 401 C90.0409375 401.804375 90.0409375 401.804375 89.0625 402.625 C86.43359696 404.37760203 84.10713602 404.64691636 81 405 C81 405.66 81 406.32 81 407 C79.68 407 78.36 407 77 407 C77 407.66 77 408.32 77 409 C65.907503 411.23848588 55.19735694 411.75644815 44 410 C44 409.34 44 408.68 44 408 C43.38511719 407.93941406 42.77023438 407.87882812 42.13671875 407.81640625 C41.32847656 407.73261719 40.52023438 407.64882813 39.6875 407.5625 C38.88699219 407.48128906 38.08648437 407.40007812 37.26171875 407.31640625 C35 407 35 407 32 406 C32 405.34 32 404.68 32 404 C31.29746094 403.93941406 30.59492188 403.87882812 29.87109375 403.81640625 C26.10515676 402.74554798 23.82453477 400.58271155 21.0625 397.9375 C20.26863892 397.18932007 20.26863892 397.18932007 19.45874023 396.42602539 C12.61344253 389.85719878 7.69168386 382.78816777 4 374 C4 373.34 4 372.68 4 372 C3.34 372 2.68 372 2 372 C0.32810545 362.15866434 -0.28478694 352.70481443 -0.24050903 342.72537231 C-0.24138344 341.23661026 -0.24313873 339.74784852 -0.24568737 338.2590884 C-0.25011874 334.20891551 -0.24221588 330.15885019 -0.23213124 326.10869098 C-0.22343767 321.7258016 -0.22642105 317.34291755 -0.22793579 312.96002197 C-0.22898093 305.37987982 -0.22274329 297.79977228 -0.21146011 290.21963882 C-0.19515753 279.26024668 -0.18999225 268.30087116 -0.18748413 257.3414682 C-0.18311447 239.55755136 -0.16982521 221.77365294 -0.15087891 203.98974609 C-0.13250119 186.72151786 -0.11835396 169.45329464 -0.10986328 152.18505859 C-0.10933783 151.11939231 -0.10881239 150.05372602 -0.10827102 148.95576681 C-0.10566081 143.60925822 -0.10313343 138.26274959 -0.10064721 132.91624093 C-0.07993743 88.61081453 -0.04473183 44.30540822 0 0 Z " fill="#FDFEFE" transform="translate(183,306)"/>
<path d="M0 0 C0.02288496 45.4709087 0.0405077 90.9418168 0.05106533 136.41273013 C0.05231605 141.78003624 0.05361037 147.14734234 0.05493164 152.51464844 C0.05519395 153.58319004 0.05545626 154.65173165 0.05572652 155.7526533 C0.06007875 173.05814186 0.06796386 190.3636271 0.0771528 207.6691137 C0.08650174 225.42390695 0.09205825 243.17869847 0.09408849 260.93349409 C0.09546114 271.89061218 0.09979778 282.84772089 0.10791647 293.80483609 C0.11319921 301.31681652 0.1148008 308.82879209 0.11350138 316.34077424 C0.1128604 320.67584217 0.11384847 325.01089369 0.11920547 329.34595871 C0.12407577 333.31616 0.12431477 337.28633387 0.12089889 341.25653642 C0.12047678 342.69139391 0.12174184 344.12625311 0.12488318 345.56110722 C0.13910932 352.46138085 0.08720949 359.17755394 -1 366 C-1.33 366 -1.66 366 -2 366 C-2.33 247.2 -2.66 128.4 -3 6 C-11.25 14.25 -19.5 22.5 -28 31 C-28.99 31.33 -29.98 31.66 -31 32 C-31.433125 32.763125 -31.86625 33.52625 -32.3125 34.3125 C-34.37157083 37.59176095 -36.71218683 39.0273121 -40 41 C-40.66 40.67 -41.32 40.34 -42 40 C-36.82506492 34.77879175 -31.64478951 29.56294591 -26.45756721 24.35394287 C-24.0492841 21.93520784 -21.64290257 19.51464152 -19.24072266 17.08984375 C-16.48109509 14.30439514 -13.713452 11.52699084 -10.9453125 8.75 C-10.0806839 7.87504883 -9.2160553 7.00009766 -8.32522583 6.09863281 C-7.52454681 5.29780273 -6.7238678 4.49697266 -5.89892578 3.671875 C-5.1927713 2.9612793 -4.48661682 2.25068359 -3.75906372 1.51855469 C-2 0 -2 0 0 0 Z " fill="#AAF7CE" transform="translate(713,306)"/>
<path d="M0 0 C0.66 0 1.32 0 2 0 C3.38938077 1.96147874 4.7260411 3.96166576 6 6 C4.68 5.67 3.36 5.34 2 5 C2.33 126.11 2.66 247.22 3 372 C2.67 372 2.34 372 2 372 C0.32810545 362.15866434 -0.28478694 352.70481443 -0.24050903 342.72537231 C-0.24138344 341.23661026 -0.24313873 339.74784852 -0.24568737 338.2590884 C-0.25011874 334.20891551 -0.24221588 330.15885019 -0.23213124 326.10869098 C-0.22343767 321.7258016 -0.22642105 317.34291755 -0.22793579 312.96002197 C-0.22898093 305.37987982 -0.22274329 297.79977228 -0.21146011 290.21963882 C-0.19515753 279.26024668 -0.18999225 268.30087116 -0.18748413 257.3414682 C-0.18311447 239.55755136 -0.16982521 221.77365294 -0.15087891 203.98974609 C-0.13250119 186.72151786 -0.11835396 169.45329464 -0.10986328 152.18505859 C-0.10933783 151.11939231 -0.10881239 150.05372602 -0.10827102 148.95576681 C-0.10566081 143.60925822 -0.10313343 138.26274959 -0.10064721 132.91624093 C-0.07993743 88.61081453 -0.04473183 44.30540822 0 0 Z " fill="#CEFEE5" transform="translate(183,306)"/>
<path d="M0 0 C0.99 0.495 0.99 0.495 2 1 C1.67 81.52 1.34 162.04 1 245 C1.66 245 2.32 245 3 245 C3.495 250.94 3.495 250.94 4 257 C3.34 257 2.68 257 2 257 C1.77213542 254.94921875 1.54427083 252.8984375 1.31640625 250.84765625 C1.18113386 248.98859771 1.18113386 248.98859771 0 248 C-0.09808708 244.81448052 -0.12990073 241.65062218 -0.12025452 238.46470642 C-0.12110894 237.45113101 -0.12196337 236.4375556 -0.12284368 235.39326578 C-0.12450154 231.96910954 -0.11897214 228.5450014 -0.11352539 225.12084961 C-0.11324356 222.67738343 -0.11340117 220.23391718 -0.1139679 217.79045105 C-0.11419622 212.51552134 -0.11134483 207.24060683 -0.10573006 201.96568108 C-0.09761721 194.33894208 -0.09500006 186.71220906 -0.09374207 179.08546621 C-0.09155121 166.71281719 -0.0848902 154.34017475 -0.07543945 141.9675293 C-0.06626621 129.94571974 -0.05918495 117.92391196 -0.05493164 105.90209961 C-0.05466892 105.16158743 -0.05440619 104.42107525 -0.05413551 103.65812331 C-0.05283051 99.94334428 -0.05156679 96.22856524 -0.05032361 92.5137862 C-0.03994993 61.67585268 -0.02225658 30.83792734 0 0 Z " fill="#1EBF5E" transform="translate(595,421)"/>
<path d="M0 0 C0 3.96 0 7.92 0 12 C-0.33 12 -0.66 12 -1 12 C-1.495 8.04 -1.495 8.04 -2 4 C-2.74161377 4.7520874 -3.48322754 5.5041748 -4.24731445 6.27905273 C-6.9985787 9.06650111 -9.75644359 11.84733839 -12.51635742 14.6262207 C-13.710229 15.83015345 -14.90229986 17.03587465 -16.0925293 18.2434082 C-17.80307951 19.97820131 -19.51999001 21.70647198 -21.23828125 23.43359375 C-21.76964188 23.97527695 -22.3010025 24.51696014 -22.84846497 25.07505798 C-25.22033348 27.44764268 -26.77038177 28.92346059 -30 30 C-30.433125 30.763125 -30.86625 31.52625 -31.3125 32.3125 C-33.37157083 35.59176095 -35.71218683 37.0273121 -39 39 C-39.66 38.67 -40.32 38.34 -41 38 C-35.65364281 32.57776687 -30.29570726 27.16718068 -24.92944336 21.76464844 C-23.10414255 19.92423294 -21.28153953 18.08113781 -19.46166992 16.23535156 C-16.84993714 13.58735459 -14.22875008 10.94905034 -11.60546875 8.3125 C-10.78974899 7.48129639 -9.97402924 6.65009277 -9.1335907 5.79370117 C-7.99274773 4.65251831 -7.99274773 4.65251831 -6.82885742 3.48828125 C-6.16045334 2.81321533 -5.49204926 2.13814941 -4.8033905 1.44262695 C-3 0 -3 0 0 0 Z " fill="#CFFAE6" transform="translate(712,308)"/>
<path d="M0 0 C1 2 1 2 0.5625 4.6875 C-1.63573722 9.34776291 -5.0147064 11.84561703 -9 15 C-9.886875 15.7425 -10.77375 16.485 -11.6875 17.25 C-14 19 -14 19 -16.2722168 20.24926758 C-19.58425128 22.37498129 -22.21792824 24.96834987 -24.95703125 27.76171875 C-25.50485764 28.31237503 -26.05268402 28.86303131 -26.61711121 29.43037415 C-28.35368793 31.17808307 -30.08315297 32.93263999 -31.8125 34.6875 C-32.99367666 35.87871544 -34.1753126 37.06947566 -35.35742188 38.25976562 C-38.24362357 41.16793528 -41.12347065 44.08226417 -44 47 C-44 44 -44 44 -42.32958984 41.96882629 C-41.54793457 41.19383286 -40.7662793 40.41883942 -39.9609375 39.62036133 C-38.63956787 38.29933159 -38.63956787 38.29933159 -37.29150391 36.95161438 C-36.31949434 35.9949257 -35.3473225 35.03840187 -34.375 34.08203125 C-33.38785727 33.10048321 -32.40137445 32.11827108 -31.41552734 31.13542175 C-28.81800608 28.54935928 -26.21160207 25.97243141 -23.60327148 23.39727783 C-20.94365225 20.76833716 -18.29249692 18.13089193 -15.640625 15.49414062 C-10.43534877 10.32104678 -5.22066312 5.15756993 0 0 Z " fill="#9FF1C7" transform="translate(645,372)"/>
<path d="M0 0 C0.495 1.98 0.495 1.98 1 4 C0.236875 4.598125 -0.52625 5.19625 -1.3125 5.8125 C-3.36681982 7.48462078 -5.17549176 9.09947058 -7 11 C-9.68842602 13.76523819 -12.4276015 16.38341936 -15.3671875 18.875 C-20.8901769 23.6898815 -26.05140313 28.86535176 -31.22973633 34.04443359 C-32.95311378 35.76559369 -34.68438324 37.47855618 -36.41601562 39.19140625 C-37.51611248 40.28857394 -38.61573949 41.38621297 -39.71484375 42.484375 C-40.23143051 42.99377625 -40.74801727 43.50317749 -41.28025818 44.02801514 C-43.5877632 46.35047804 -44.94873324 47.84619971 -46 51 C-49 53 -49 53 -51.6875 52.625 C-52.450625 52.41875 -53.21375 52.2125 -54 52 C-53.67 51.34 -53.34 50.68 -53 50 C-52.22056534 49.8649707 -51.44113068 49.72994141 -50.63807678 49.59082031 C-47.47856344 48.88321973 -46.75886329 48.05454374 -44.79077148 45.546875 C-40.60524386 40.46880626 -36.01225175 35.88662359 -31.34765625 31.25 C-30.44752304 30.35128174 -29.54738983 29.45256348 -28.61997986 28.52661133 C-26.25288737 26.16413425 -23.88365361 23.80384888 -21.51330566 21.44464111 C-19.08449258 19.02614819 -16.65858897 16.60474054 -14.23242188 14.18359375 C-9.49092631 9.45307046 -4.74658102 4.72542027 0 0 Z " fill="#8DEFBC" transform="translate(499,310)"/>
<path d="M0 0 C0 5.38930186 -3.80187841 8.91894037 -7.4375 12.5625 C-8.62315904 13.71023818 -9.81054811 14.85619299 -11 16 C-11.86625 16.886875 -12.7325 17.77375 -13.625 18.6875 C-16 21 -16 21 -18.75 23.1875 C-21.07487388 24.80309077 -21.07487388 24.80309077 -22 27 C-23.32 26.67 -24.64 26.34 -26 26 C-17.42 17.42 -8.84 8.84 0 0 Z " fill="#26D079" transform="translate(673,300)"/>
<path d="M0 0 C0.33 0.99 0.66 1.98 1 3 C-2.30564557 8.15456597 -7.2546714 12.19223804 -11.8671875 16.14453125 C-14.29494402 18.2565905 -16.66489007 20.41067162 -19 22.625 C-19.763125 23.33914063 -20.52625 24.05328125 -21.3125 24.7890625 C-23.32043115 27.41982414 -23.36284925 28.76837388 -23 32 C-23.99 32.495 -23.99 32.495 -25 33 C-25.72096528 29.33509315 -25.98223952 27.5329767 -25 24 C-21.94717757 20.43029759 -18.39458533 17.53962319 -14.79345703 14.55029297 C-11.61627596 11.80388679 -8.69480802 8.80355726 -5.75 5.8125 C-5.17741455 5.23532227 -4.6048291 4.65814453 -4.01489258 4.06347656 C-2.67413593 2.71141852 -1.33668252 1.35608598 0 0 Z " fill="#E5FEF4" transform="translate(622,397)"/>
<path d="M0 0 C0 3.10551666 -0.5393715 4.35261084 -2 7 C-2.66 7 -3.32 7 -4 7 C-4.226875 7.556875 -4.45375 8.11375 -4.6875 8.6875 C-7.06492133 12.87628996 -10.29085702 15.54507809 -14.3125 18.125 C-15.199375 18.74375 -16.08625 19.3625 -17 20 C-17 20.99 -17 21.98 -17 23 C-18.98 23.99 -18.98 23.99 -21 25 C-21.66 24.34 -22.32 23.68 -23 23 C-15.41 15.41 -7.82 7.82 0 0 Z " fill="#29CC6C" transform="translate(535,439)"/>
<path d="M0 0 C2 1 2 1 2.81640625 2.78515625 C6.56624957 14.23101309 6.52911803 25.14933528 5 37 C4.34 37 3.68 37 3 37 C2.67 39.97 2.34 42.94 2 46 C1.34 46 0.68 46 0 46 C0 44.35 0 42.7 0 41 C0.66 41 1.32 41 2 41 C1.979375 40.030625 1.95875 39.06125 1.9375 38.0625 C2 35 2 35 3 34 C3.15686249 32.44051458 3.25076639 30.87457332 3.31640625 29.30859375 C3.35830078 28.36435547 3.40019531 27.42011719 3.44335938 26.44726562 C3.50233398 24.95743164 3.50233398 24.95743164 3.5625 23.4375 C3.60568359 22.44041016 3.64886719 21.44332031 3.69335938 20.41601562 C3.79980298 17.9441585 3.90181928 15.4721969 4 13 C3.34 13 2.68 13 2 13 C2 10.69 2 8.38 2 6 C1.34 6 0.68 6 0 6 C0 4.02 0 2.04 0 0 Z " fill="#B4F7D6" transform="translate(707,214)"/>
<path d="M0 0 C0.33 0 0.66 0 1 0 C1.02688151 1.64574566 1.04634123 3.29161413 1.0625 4.9375 C1.07410156 5.85402344 1.08570313 6.77054688 1.09765625 7.71484375 C1 10 1 10 0 11 C-0.23527773 13.34987262 -0.41386417 15.70556039 -0.5625 18.0625 C-0.64628906 19.35285156 -0.73007813 20.64320313 -0.81640625 21.97265625 C-0.87699219 22.97167969 -0.93757812 23.97070312 -1 25 C-0.34 25 0.32 25 1 25 C1 29.29 1 33.58 1 38 C0.34 36.68 -0.32 35.36 -1 34 C-1.33 33.67 -1.66 33.34 -2 33 C-3.58399019 21.91206864 -3.98648645 10.63063053 0 0 Z " fill="#CBFBE4" transform="translate(186,218)"/>
<path d="M0 0 C0.66 0.99 1.32 1.98 2 3 C0.06852571 4.9853759 -1.86966609 6.96329392 -3.8125 8.9375 C-4.35970703 9.50146484 -4.90691406 10.06542969 -5.47070312 10.64648438 C-9.66015625 14.88671875 -9.66015625 14.88671875 -13 16 C-14.03013277 17.64821244 -15.03114628 19.31503702 -16 21 C-16.66 21.33 -17.32 21.66 -18 22 C-18.66 21.34 -19.32 20.68 -20 20 C-19.38125 19.7525 -18.7625 19.505 -18.125 19.25 C-15.89074267 18.20176694 -15.89074267 18.20176694 -15.13671875 16.19921875 C-13.71778913 13.45400441 -11.9031403 11.71111253 -9.6875 9.5625 C-8.88828125 8.78132813 -8.0890625 8.00015625 -7.265625 7.1953125 C-6.51796875 6.47085937 -5.7703125 5.74640625 -5 5 C-3.97682263 3.9815161 -2.95540413 2.96125415 -1.9375 1.9375 C-1.298125 1.298125 -0.65875 0.65875 0 0 Z " fill="#2BCD6E" transform="translate(480,494)"/>
<path d="M0 0 C0.33 1.32 0.66 2.64 1 4 C0.443125 4.391875 -0.11375 4.78375 -0.6875 5.1875 C-5.24259872 8.75771251 -8.95956375 13.03631464 -12.66796875 17.44921875 C-15.52559203 20.77612914 -17.81807948 21.72724158 -22 23 C-17.47008204 17.56266945 -12.65705784 12.53541069 -7.625 7.5625 C-6.88894531 6.83095703 -6.15289063 6.09941406 -5.39453125 5.34570312 C-3.59863926 3.56147277 -1.80044015 1.77963876 0 0 Z " fill="#34D47E" transform="translate(646,327)"/>
<path d="M0 0 C1.2380014 3.57644848 0.74926071 6.33694766 0 10 C-0.66 10 -1.32 10 -2 10 C-2.09474609 10.8353125 -2.09474609 10.8353125 -2.19140625 11.6875 C-3.24507849 18.25354176 -5.83950395 22.73224799 -11 27 C-13.2265625 27.71875 -13.2265625 27.71875 -15 28 C-13.625 25.5 -13.625 25.5 -12 23 C-11.34 23 -10.68 23 -10 23 C-9.731875 22.29875 -9.46375 21.5975 -9.1875 20.875 C-7.9318551 17.8350176 -6.49764877 14.9272226 -5 12 C-4.34 12 -3.68 12 -3 12 C-2.86722656 11.21753906 -2.73445313 10.43507813 -2.59765625 9.62890625 C-2.42105469 8.61699219 -2.24445313 7.60507812 -2.0625 6.5625 C-1.88847656 5.55316406 -1.71445312 4.54382813 -1.53515625 3.50390625 C-1 1 -1 1 0 0 Z " fill="#30CE78" transform="translate(297,673)"/>
<path d="M0 0 C0.33 0.66 0.66 1.32 1 2 C-2.53951865 8.0017925 -7.85175448 15.86548685 -14.78515625 17.76171875 C-15.51605469 17.84035156 -16.24695313 17.91898437 -17 18 C-11.72898586 11.58930713 -5.90871848 5.81409488 0 0 Z " fill="#25CF75" transform="translate(691,282)"/>
<path d="M0 0 C0.57975586 0.23517334 1.15951172 0.47034668 1.75683594 0.71264648 C0.82577804 1.69794076 -0.11328887 2.67567092 -1.05566406 3.65014648 C-1.57773437 4.19541992 -2.09980469 4.74069336 -2.63769531 5.30249023 C-4.24316406 6.71264648 -4.24316406 6.71264648 -7.24316406 7.71264648 C-7.89285156 8.85733398 -7.89285156 8.85733398 -8.55566406 10.02514648 C-10.61473489 13.30440744 -12.95535089 14.73995858 -16.24316406 16.71264648 C-16.90316406 16.38264648 -17.56316406 16.05264648 -18.24316406 15.71264648 C-15.68024556 13.00501837 -13.08981203 10.32541268 -10.49316406 7.65014648 C-9.76355469 6.87864258 -9.03394531 6.10713867 -8.28222656 5.31225586 C-7.57324219 4.5871582 -6.86425781 3.86206055 -6.13378906 3.11499023 C-5.48442383 2.43944092 -4.83505859 1.7638916 -4.16601562 1.06787109 C-2.24316406 -0.28735352 -2.24316406 -0.28735352 0 0 Z " fill="#C6F8E0" transform="translate(689.2431640625,330.287353515625)"/>
<path d="M0 0 C0.66 0.33 1.32 0.66 2 1 C-1.41094733 5.38382921 -3.76628937 7.96466809 -9 10 C-9.69658363 11.65438613 -10.36096883 13.32254318 -11 15 C-13.3125 17 -13.3125 17 -16 19 C-17.68528688 20.64783606 -19.35697047 22.31002677 -21 24 C-21 21 -21 21 -19.609375 19.3515625 C-18.99578125 18.78179687 -18.3821875 18.21203125 -17.75 17.625 C-15.63739998 15.61360237 -13.82800961 13.77252884 -12.0625 11.4375 C-9.61909855 8.54984375 -6.8942821 6.5865743 -3.8046875 4.4296875 C-1.74182526 2.94612843 -1.74182526 2.94612843 0 0 Z " fill="#9FF3C6" transform="translate(585,387)"/>
<path d="M0 0 C0.33 0.66 0.66 1.32 1 2 C-0.88121115 5.82576274 -3.26209859 8.44408038 -6.4375 11.25 C-7.58025391 12.27867187 -7.58025391 12.27867187 -8.74609375 13.328125 C-10.92817335 14.94672131 -12.34777634 15.5891772 -15 16 C-10.30233025 10.33870569 -5.25276628 5.14771096 0 0 Z " fill="#C9F9E2" transform="translate(537,272)"/>
<path d="M0 0 C0.33 0.66 0.66 1.32 1 2 C-1.69045049 7.88536044 -6.49255359 12.9514315 -12.4375 15.4375 C-13.283125 15.623125 -14.12875 15.80875 -15 16 C-10.30233025 10.33870569 -5.25276628 5.14771096 0 0 Z " fill="#CDFAE3" transform="translate(553,256)"/>
<path d="M0 0 C0 3.65351863 -0.88942301 5.06026776 -3 8 C-4.33333333 8.66666667 -5.66666667 9.33333333 -7 10 C-7.45375 10.825 -7.9075 11.65 -8.375 12.5 C-10.47554224 15.73160345 -12.34013513 16.10536636 -16 17 C-11.01595832 10.96668638 -5.58084697 5.4815829 0 0 Z " fill="#3DCE7B" transform="translate(511,463)"/>
<path d="M0 0 C0.33 1.32 0.66 2.64 1 4 C0.236875 4.598125 -0.52625 5.19625 -1.3125 5.8125 C-3.36681982 7.48462078 -5.17549176 9.09947058 -7 11 C-8.66666667 12.66666667 -10.33333333 14.33333333 -12 16 C-12.33 15.01 -12.66 14.02 -13 13 C-8.71 8.71 -4.42 4.42 0 0 Z " fill="#ABF4CE" transform="translate(499,310)"/>
<path d="M0 0 C0 3.67819168 -0.76843318 4.22382655 -3.1875 6.875 C-3.82171875 7.57367188 -4.4559375 8.27234375 -5.109375 8.9921875 C-7.35961863 11.38190904 -9.64357276 13.71497964 -12 16 C-12.99 15.67 -13.98 15.34 -15 15 C-10.05 10.05 -5.1 5.1 0 0 Z " fill="#C9FAE2" transform="translate(569,240)"/>
<path d="M0 0 C2.97 0.33 5.94 0.66 9 1 C9 1.66 9 2.32 9 3 C15.6 3.33 22.2 3.66 29 4 C29 4.33 29 4.66 29 5 C20.585 5.495 20.585 5.495 12 6 C12 5.67 12 5.34 12 5 C6.06 3.515 6.06 3.515 0 2 C0 1.34 0 0.68 0 0 Z " fill="#2ACB71" transform="translate(218,713)"/>
<path d="M0 0 C0 3.28176588 -0.47835901 5.10888212 -2 8 C-2.598125 8.144375 -3.19625 8.28875 -3.8125 8.4375 C-6.38935407 8.87289712 -6.38935407 8.87289712 -8.5 12 C-11.02045977 15.02455172 -11.41608995 15.39255762 -15 16 C-10.30233025 10.33870569 -5.25276628 5.14771096 0 0 Z " fill="#9CF4C6" transform="translate(521,288)"/>
<path d="M0 0 C4.32162751 3.4905453 8.10339242 7.10507368 11.64453125 11.38671875 C13.31712133 13.37743836 15.12664349 15.19869566 17 17 C16.34 17.33 15.68 17.66 15 18 C15 17.34 15 16.68 15 16 C14.46375 15.773125 13.9275 15.54625 13.375 15.3125 C8.15711496 12.42893195 5.01954368 9.5925825 3 4 C2.01 3.67 1.02 3.34 0 3 C0 2.01 0 1.02 0 0 Z " fill="#AAF7CC" transform="translate(200,322)"/>
<path d="M0 0 C0.99 0.33 1.98 0.66 3 1 C0.22941499 3.97581353 -2.48535116 5.97907692 -6 8 C-6.70125 8.556875 -7.4025 9.11375 -8.125 9.6875 C-10 11 -10 11 -13 11 C-11.52440331 6.57320993 -9.09942632 6.08567304 -5 4 C-4.34 4 -3.68 4 -3 4 C-3 3.34 -3 2.68 -3 2 C-2.01 2 -1.02 2 0 2 C0 1.34 0 0.68 0 0 Z " fill="#CBF9E3" transform="translate(280,699)"/>
<path d="M0 0 C0.33 0.66 0.66 1.32 1 2 C1.66 2 2.32 2 3 2 C2.75148276 5.93924358 2.47238289 9.87573251 2.1875 13.8125 C2.11724609 14.93205078 2.04699219 16.05160156 1.97460938 17.20507812 C1.89404297 18.27822266 1.81347656 19.35136719 1.73046875 20.45703125 C1.66239014 21.44678955 1.59431152 22.43654785 1.52416992 23.45629883 C0.94285167 26.27733043 0.22283984 27.23687791 -2 29 C-2 27.35 -2 25.7 -2 24 C-1.34 24 -0.68 24 0 24 C0 16.08 0 8.16 0 0 Z " fill="#29CC71" transform="translate(712,227)"/>
<path d="M0 0 C0.69921875 1.76953125 0.69921875 1.76953125 1 4 C-0.29296875 5.88671875 -0.29296875 5.88671875 -2.1875 7.6875 C-2.79980469 8.28949219 -3.41210938 8.89148438 -4.04296875 9.51171875 C-6.07283736 11.05539128 -7.50842901 11.58565893 -10 12 C-7.83279595 8.00778201 -5.28895912 5.12029455 -2 2 C-1.34 1.34 -0.68 0.68 0 0 Z " fill="#2ACC6F" transform="translate(459,515)"/>
<path d="M0 0 C0.66 0.99 1.32 1.98 2 3 C0.8553125 3.5878125 0.8553125 3.5878125 -0.3125 4.1875 C-3.26553184 6.17907961 -4.30183049 7.92712185 -6 11 C-6.99 11.495 -6.99 11.495 -8 12 C-8.66 11.34 -9.32 10.68 -10 10 C-9.38125 9.7525 -8.7625 9.505 -8.125 9.25 C-5.57496075 7.74997691 -5.23777652 6.6302751 -4 4 C-2.70529025 2.62913085 -1.37849103 1.28659163 0 0 Z " fill="#32CE73" transform="translate(470,504)"/>
<path d="M0 0 C5.66129431 4.69766975 10.85228904 9.74723372 16 15 C13 15 13 15 10.625 12.8828125 C9.75875 11.97273438 8.8925 11.06265625 8 10.125 C5.38729326 7.39565456 3.14810735 5.09873823 0 3 C0 2.01 0 1.02 0 0 Z " fill="#84ECB3" transform="translate(394,308)"/>
<path d="M0 0 C0 4.07546013 -1.55304448 5.80536362 -4 9 C-6.125 10.4375 -6.125 10.4375 -8 11 C-8.66 10.67 -9.32 10.34 -10 10 C-6.7 6.7 -3.4 3.4 0 0 Z " fill="#2CCC6F" transform="translate(546,428)"/>
<path d="M0 0 C3.3125 0.625 3.3125 0.625 7 2 C8.8125 5.0625 8.8125 5.0625 10 8 C10.66 8.33 11.32 8.66 12 9 C11.67 9.99 11.34 10.98 11 12 C9.16364422 10.19047409 7.33083792 8.37759362 5.5 6.5625 C4.97535156 6.04623047 4.45070313 5.52996094 3.91015625 4.99804688 C2.58775448 3.68423213 1.29164432 2.34406495 0 1 C0 0.67 0 0.34 0 0 Z " fill="#9DF3C7" transform="translate(320,399)"/>
<path d="M0 0 C0.66 0 1.32 0 2 0 C2.6496875 1.36125 2.6496875 1.36125 3.3125 2.75 C4.82343302 5.93605582 4.82343302 5.93605582 6.75 8.125 C8 10 8 10 7.578125 12.1171875 C7.38734375 12.73851562 7.1965625 13.35984375 7 14 C5.82508418 12.23462904 4.66031316 10.46250287 3.5 8.6875 C2.8503125 7.70136719 2.200625 6.71523438 1.53125 5.69921875 C0 3 0 3 0 0 Z " fill="#D3FDE8" transform="translate(189,682)"/>
<path d="M0 0 C0.33 0.66 0.66 1.32 1 2 C-0.35617781 6.06853343 -2.60247226 7.46850875 -6 10 C-8.19921875 10.6484375 -8.19921875 10.6484375 -10 11 C-6.79239749 7.19364503 -3.59253891 3.45436433 0 0 Z " fill="#A9F5CC" transform="translate(670,347)"/>
<path d="M0 0 C0 4.35637821 -2.27897057 6.05610053 -5.109375 9.19140625 C-7.24427494 11.23367623 -9.12212703 12.30233382 -12 13 C-8.19524578 8.43969176 -4.25030379 4.14910608 0 0 Z " fill="#CBFCE2" transform="translate(602,207)"/>
<path d="M0 0 C0 0.66 0 1.32 0 2 C0.99 2.33 1.98 2.66 3 3 C-3.73742646 3.11044961 -10.29980211 2.70132913 -17 2 C-17 1.67 -17 1.34 -17 1 C-15.10440036 0.83069605 -13.20850769 0.66467136 -11.3125 0.5 C-10.25675781 0.4071875 -9.20101562 0.314375 -8.11328125 0.21875 C-5.39363975 0.0276585 -2.72460144 -0.04043935 0 0 Z " fill="#35D07B" transform="translate(665,177)"/>
<path d="M0 0 C0.33 0.66 0.66 1.32 1 2 C-0.66666667 3.66666667 -2.33333333 5.33333333 -4 7 C-4.7425 7.8353125 -4.7425 7.8353125 -5.5 8.6875 C-7.47092441 10.41205886 -9.54765165 11.13836409 -12 12 C-8.32167983 7.47384007 -4.58913637 3.60575001 0 0 Z " fill="#C0FADD" transform="translate(620,190)"/>
<path d="M0 0 C0.99 0 1.98 0 3 0 C2.67 2.31 2.34 4.62 2 7 C1.34 7 0.68 7 0 7 C-0.103125 7.78375 -0.20625 8.5675 -0.3125 9.375 C-1 12 -1 12 -4 14 C-3.67 12.35 -3.34 10.7 -3 9 C-2.34 9 -1.68 9 -1 9 C-1 8.01 -1 7.02 -1 6 C-0.34 6 0.32 6 1 6 C0.67 4.02 0.34 2.04 0 0 Z " fill="#C6FBE3" transform="translate(292,678)"/>
<path d="M0 0 C0.33 1.32 0.66 2.64 1 4 C0.443125 4.4125 -0.11375 4.825 -0.6875 5.25 C-3.16195956 7.12256399 -5.5835229 9.05339344 -8 11 C-8.66 10.67 -9.32 10.34 -10 10 C-6.7 6.7 -3.4 3.4 0 0 Z " fill="#3CD788" transform="translate(646,327)"/>
<path d="M0 0 C2.64 0 5.28 0 8 0 C6 1.5 6 1.5 4 3 C3.29875 3.556875 2.5975 4.11375 1.875 4.6875 C0 6 0 6 -2 6 C-2.33 5.01 -2.66 4.02 -3 3 C-2.34 3 -1.68 3 -1 3 C-0.67 2.01 -0.34 1.02 0 0 Z " fill="#13CA64" transform="translate(620,185)"/>
<path d="M0 0 C2.31 0.66 4.62 1.32 7 2 C7 2.66 7 3.32 7 4 C7.66 4 8.32 4 9 4 C9 5.32 9 6.64 9 8 C8.01 7.67 7.02 7.34 6 7 C5.67 6.34 5.34 5.68 5 5 C4.01 4.67 3.02 4.34 2 4 C0.8125 1.9375 0.8125 1.9375 0 0 Z " fill="#2BD37C" transform="translate(291,414)"/>
<path d="M0 0 C0.33 0.66 0.66 1.32 1 2 C-1.31537955 5.72114571 -3.28579473 8.61229661 -7 11 C-6.67 9.68 -6.34 8.36 -6 7 C-5.34 7 -4.68 7 -4 7 C-3.71125 6.030625 -3.4225 5.06125 -3.125 4.0625 C-2 1 -2 1 0 0 Z " fill="#CDFCE5" transform="translate(703,266)"/>
<path d="M0 0 C3.99824088 3.66505414 6.60168569 7.11112852 9 12 C8.67 12.66 8.34 13.32 8 14 C7.67 13.01 7.34 12.02 7 11 C6.34 11 5.68 11 5 11 C4.71125 10.195625 4.4225 9.39125 4.125 8.5625 C3.26737432 5.8673532 3.26737432 5.8673532 1 5 C0.375 2.4375 0.375 2.4375 0 0 Z " fill="#C3FBE3" transform="translate(698,200)"/>
<path d="M0 0 C8.6309795 5.0022779 8.6309795 5.0022779 11 9 C6.16592748 8.58565093 4.10462326 6.62206046 1 3 C0.67 2.01 0.34 1.02 0 0 Z " fill="#CFFDE9" transform="translate(683,187)"/>
<path d="M0 0 C0 0.66 0 1.32 0 2 C-5.48675196 3.86783046 -10.22192976 4.2358396 -16 4 C-16 3.67 -16 3.34 -16 3 C-14.948125 2.87625 -13.89625 2.7525 -12.8125 2.625 C-8.18396006 1.86622296 -4.71241451 0 0 0 Z " fill="#32CB76" transform="translate(677,713)"/>
<path d="M0 0 C1.0209375 0.2165625 1.0209375 0.2165625 2.0625 0.4375 C5.36273082 1.06945909 8.67144426 1.54313941 12 2 C12 2.66 12 3.32 12 4 C12.66 4.33 13.32 4.66 14 5 C6.375 4.125 6.375 4.125 3 3 C3 2.34 3 1.68 3 1 C2.01 0.67 1.02 0.34 0 0 Z " fill="#B4F7D6" transform="translate(212,709)"/>
<path d="M0 0 C3.68006822 3.38168431 5.9785845 6.42521756 8 11 C6.68 10.34 5.36 9.68 4 9 C4 8.34 4 7.68 4 7 C3.01 6.67 2.02 6.34 1 6 C0.67 4.02 0.34 2.04 0 0 Z " fill="#2CCC73" transform="translate(603,687)"/>
<path d="M0 0 C3.96 1.98 3.96 1.98 8 4 C7.67 5.32 7.34 6.64 7 8 C3.64379729 6.61122646 1.92701272 5.08322035 0 2 C0 1.34 0 0.68 0 0 Z " fill="#55DC8F" transform="translate(222,344)"/>
<path d="M0 0 C0.33 0 0.66 0 1 0 C1 1.65 1 3.3 1 5 C0.34 5 -0.32 5 -1 5 C-1.1546875 5.8971875 -1.1546875 5.8971875 -1.3125 6.8125 C-2.08876455 9.28243264 -3.07088921 10.32251235 -5 12 C-4.52496041 7.01208429 -3.0298864 3.9767259 0 0 Z " fill="#AEF6D5" transform="translate(192,206)"/>
<path d="M0 0 C0.33 0.66 0.66 1.32 1 2 C-0.0625 4.625 -0.0625 4.625 -2 7 C-5.1875 7.3125 -5.1875 7.3125 -8 7 C-5.78972846 3.62642766 -3.53600465 1.91135386 0 0 Z " fill="#28CD70" transform="translate(281,701)"/>
<path d="M0 0 C0.66 0.99 1.32 1.98 2 3 C-1.17320782 6.53586014 -3.16743695 8.58578031 -8 9 C-6.8553125 7.88625 -6.8553125 7.88625 -5.6875 6.75 C-3.5606298 4.5736677 -1.7440044 2.47832204 0 0 Z " fill="#16CA63" transform="translate(586,388)"/>
<path d="M0 0 C0.33 0.99 0.66 1.98 1 3 C0.01 3.33 -0.98 3.66 -2 4 C-2.73323796 6.01508358 -2.73323796 6.01508358 -3 8 C-4.65 8.33 -6.3 8.66 -8 9 C-7.04270084 7.87411986 -6.08412105 6.7493285 -5.125 5.625 C-4.59132813 4.99851562 -4.05765625 4.37203125 -3.5078125 3.7265625 C-2.38567993 2.44163349 -1.20628025 1.20628025 0 0 Z " fill="#2BCE75" transform="translate(700,273)"/>
<path d="M0 0 C0.66 0.33 1.32 0.66 2 1 C0.90716423 2.03295436 -0.19970579 3.05107835 -1.3125 4.0625 C-1.92738281 4.63097656 -2.54226563 5.19945312 -3.17578125 5.78515625 C-3.77777344 6.18605469 -4.37976563 6.58695313 -5 7 C-5.99 6.67 -6.98 6.34 -8 6 C-5.54080489 3.3651481 -3.42227589 1.25483449 0 0 Z " fill="#E0FCEE" transform="translate(611,200)"/>
<path d="M0 0 C1.32 0.33 2.64 0.66 4 1 C5.125 3.9375 5.125 3.9375 6 7 C6.66 7.66 7.32 8.32 8 9 C7.01 9 6.02 9 5 9 C3.35 6.03 1.7 3.06 0 0 Z " fill="#CEFCE6" transform="translate(604,687)"/>
<path d="M0 0 C-0.1875 1.8125 -0.1875 1.8125 -1 4 C-3.4375 5.8125 -3.4375 5.8125 -6 7 C-6.66 6.67 -7.32 6.34 -8 6 C-7.0479279 4.99403703 -6.08812654 3.99538437 -5.125 3 C-4.59132813 2.443125 -4.05765625 1.88625 -3.5078125 1.3125 C-2 0 -2 0 0 0 Z " fill="#30CC72" transform="translate(503,473)"/>
<path d="M0 0 C1.14926266 0.95421808 2.29430541 1.91352045 3.4375 2.875 C4.07558594 3.40867187 4.71367187 3.94234375 5.37109375 4.4921875 C7 6 7 6 8 8 C6.35 8 4.7 8 3 8 C3 7.34 3 6.68 3 6 C2.34 5.67 1.68 5.34 1 5 C0.375 2.4375 0.375 2.4375 0 0 Z " fill="#2ACF71" transform="translate(303,382)"/>
<path d="M0 0 C0.99 0 1.98 0 3 0 C3.33 0.99 3.66 1.98 4 3 C5.62332967 4.38576923 7.28724465 5.72641268 9 7 C8.67 7.99 8.34 8.98 8 10 C6.33333333 8.33333333 4.66666667 6.66666667 3 5 C2.401875 4.443125 1.80375 3.88625 1.1875 3.3125 C0 2 0 2 0 0 Z " fill="#31CC73" transform="translate(185,306)"/>
<path d="M0 0 C0.66 0.33 1.32 0.66 2 1 C-2.43076923 6.78461538 -2.43076923 6.78461538 -5.3125 7.875 C-5.869375 7.91625 -6.42625 7.9575 -7 8 C-4.53846154 3.2 -4.53846154 3.2 -1.8125 2.1875 C-0.9153125 2.0946875 -0.9153125 2.0946875 0 2 C0 1.34 0 0.68 0 0 Z " fill="#1CC966" transform="translate(289,693)"/>
<path d="M0 0 C0.99 0.33 1.98 0.66 3 1 C2.34 2.65 1.68 4.3 1 6 C0.34 6 -0.32 6 -1 6 C-1.66 7.32 -2.32 8.64 -3 10 C-3.33 8.68 -3.66 7.36 -4 6 C-2.68 5.67 -1.36 5.34 0 5 C0 3.35 0 1.7 0 0 Z " fill="#B9F8DA" transform="translate(701,688)"/>
<path d="M0 0 C0.33 1.32 0.66 2.64 1 4 C-0.65 5.32 -2.3 6.64 -4 8 C-4.33 7.01 -4.66 6.02 -5 5 C-3.35 3.35 -1.7 1.7 0 0 Z " fill="#B3F7D5" transform="translate(499,310)"/>
<path d="M0 0 C1.32 0.66 2.64 1.32 4 2 C0.535 4.97 0.535 4.97 -3 8 C-2.67 6.35 -2.34 4.7 -2 3 C-1.34 3 -0.68 3 0 3 C0 2.01 0 1.02 0 0 Z " fill="#1CC75F" transform="translate(564,240)"/>
<path d="M0 0 C1.14926266 0.95421808 2.29430541 1.91352045 3.4375 2.875 C4.07558594 3.40867188 4.71367187 3.94234375 5.37109375 4.4921875 C7 6 7 6 8 8 C4 8 4 8 2.3125 6.8125 C0.69869237 4.58390852 0.36512747 2.7019433 0 0 Z " fill="#C5F9E1" transform="translate(284,198)"/>
<path d="M0 0 C1.17539996 0.92652701 2.34010577 1.86663387 3.5 2.8125 C4.1496875 3.33457031 4.799375 3.85664063 5.46875 4.39453125 C7 6 7 6 7 9 C6.34 8.67 5.68 8.34 5 8 C5 7.34 5 6.68 5 6 C3.68 5.67 2.36 5.34 1 5 C0.67 3.35 0.34 1.7 0 0 Z " fill="#1CC661" transform="translate(423,503)"/>
<path d="M0 0 C0.99 0.33 1.98 0.66 3 1 C0.69 3.64 -1.62 6.28 -4 9 C-4.33 7.68 -4.66 6.36 -5 5 C-3.6875 3.25 -3.6875 3.25 -2 2 C-1.34 2 -0.68 2 0 2 C0 1.34 0 0.68 0 0 Z " fill="#DCFDEF" transform="translate(492,479)"/>
<path d="M0 0 C3.7952131 1.49097658 5.61042731 3.75700849 8 7 C4.22454612 5.90931332 1.52956528 5.0916909 -1 2 C-0.67 1.34 -0.34 0.68 0 0 Z " fill="#27CB6D" transform="translate(345,425)"/>
<path d="M0 0 C1.14926266 0.95421808 2.29430541 1.91352045 3.4375 2.875 C4.07558594 3.40867187 4.71367187 3.94234375 5.37109375 4.4921875 C7 6 7 6 8 8 C4.54074837 6.7508258 1.85306797 5.32472205 -1 3 C-0.67 2.01 -0.34 1.02 0 0 Z " fill="#30CE72" transform="translate(337,416)"/>
<path d="M0 0 C1.65 0 3.3 0 5 0 C5.33 1.65 5.66 3.3 6 5 C6.66 5 7.32 5 8 5 C7.67 5.66 7.34 6.32 7 7 C5.83040013 6.02433888 4.66438823 5.044375 3.5 4.0625 C2.8503125 3.51722656 2.200625 2.97195312 1.53125 2.41015625 C1.0259375 1.94480469 0.520625 1.47945312 0 1 C0 0.67 0 0.34 0 0 Z " fill="#2ACC6F" transform="translate(336,250)"/>
<path d="M0 0 C2.31 1.98 4.62 3.96 7 6 C6.01 6.33 5.02 6.66 4 7 C2 5.1875 2 5.1875 0 3 C0 2.01 0 1.02 0 0 Z " fill="#1CC661" transform="translate(433,513)"/>
<path d="M0 0 C0 3.10551666 -0.5393715 4.35261084 -2 7 C-3.32 6.67 -4.64 6.34 -6 6 C-4.02 4.02 -2.04 2.04 0 0 Z " fill="#32CC71" transform="translate(535,439)"/>
<path d="M0 0 C0 3 0 3 -1.375 4.6875 C-3 6 -3 6 -5 6 C-4.75 4.125 -4.75 4.125 -4 2 C-1.9375 0.75 -1.9375 0.75 0 0 Z " fill="#22C967" transform="translate(476,500)"/>
<path d="M0 0 C0.33 1.32 0.66 2.64 1 4 C-1.375 5.5625 -1.375 5.5625 -4 7 C-4.66 6.67 -5.32 6.34 -6 6 C-4.02 4.02 -2.04 2.04 0 0 Z " fill="#3DCF7A" transform="translate(494,480)"/>
<path d="M0 0 C2.0625 0.4375 2.0625 0.4375 4 1 C1.03 3.475 1.03 3.475 -2 6 C-1.125 1.125 -1.125 1.125 0 0 Z " fill="#E0FFF3" transform="translate(510,460)"/>
<path d="M0 0 C1.66611905 -0.042721 3.33382885 -0.04063832 5 0 C6 1 6 1 6.0625 3.5625 C6.041875 4.366875 6.02125 5.17125 6 6 C3.97945196 4.35830472 1.97956942 2.69088222 0 1 C0 0.67 0 0.34 0 0 Z " fill="#CAF9E2" transform="translate(349,428)"/>
<path d="M0 0 C0.66 0.33 1.32 0.66 2 1 C0.6875 3.5 0.6875 3.5 -1 6 C-1.99 6 -2.98 6 -4 6 C-2.84826645 3.53199953 -1.95216435 1.95216435 0 0 Z " fill="#23CD6B" transform="translate(565,409)"/>
<path d="M0 0 C2.76262553 0.3810518 3.84143894 0.83597132 5.8125 2.875 C6.204375 3.57625 6.59625 4.2775 7 5 C6.67 5.99 6.34 6.98 6 8 C4.9970458 6.85675161 3.99770973 5.71032809 3 4.5625 C2.443125 3.92441406 1.88625 3.28632813 1.3125 2.62890625 C0 1 0 1 0 0 Z " fill="#29CC6F" transform="translate(387,300)"/>
<path d="M0 0 C0.33 0.99 0.66 1.98 1 3 C-1.375 4.5625 -1.375 4.5625 -4 6 C-4.66 5.67 -5.32 5.34 -6 5 C-2.25 1.125 -2.25 1.125 0 0 Z " fill="#B1F6D5" transform="translate(205,192)"/>
<path d="M0 0 C0.66 0.33 1.32 0.66 2 1 C-4.45 5.09326923 -4.45 5.09326923 -7.234375 4.62109375 C-7.81703125 4.41613281 -8.3996875 4.21117187 -9 4 C-7.54618103 3.30300448 -6.08677047 2.61766134 -4.625 1.9375 C-3.40683594 1.36322266 -3.40683594 1.36322266 -2.1640625 0.77734375 C-1.44992188 0.52082031 -0.73578125 0.26429688 0 0 Z " fill="#A8F6D1" transform="translate(222,182)"/>
<path d="M0 0 C0.33 0.66 0.66 1.32 1 2 C-2.44069624 4.29379749 -3.72290301 5 -8 5 C-8 4.34 -8 3.68 -8 3 C-5.36 2.01 -2.72 1.02 0 0 Z " fill="#33CE76" transform="translate(272,708)"/>
<path d="M0 0 C0.66 0 1.32 0 2 0 C3.05771739 1.63064764 4.05273046 3.30280873 5 5 C5.99 6.485 5.99 6.485 7 8 C5.1875 7.9375 5.1875 7.9375 3 7 C1.25 3.4375 1.25 3.4375 0 0 Z " fill="#26CD6B" transform="translate(318,397)"/>
<path d="M0 0 C1.98 0.66 3.96 1.32 6 2 C6.33 3.65 6.66 5.3 7 7 C5.83040013 6.02433888 4.66438823 5.044375 3.5 4.0625 C2.8503125 3.51722656 2.200625 2.97195313 1.53125 2.41015625 C1.0259375 1.94480469 0.520625 1.47945313 0 1 C0 0.67 0 0.34 0 0 Z " fill="#8FEDBE" transform="translate(311,390)"/>
<path d="M0 0 C1.14926266 0.95421808 2.29430541 1.91352045 3.4375 2.875 C4.07558594 3.40867187 4.71367187 3.94234375 5.37109375 4.4921875 C7 6 7 6 8 8 C5.525 7.01 5.525 7.01 3 6 C3 5.34 3 4.68 3 4 C2.01 3.67 1.02 3.34 0 3 C0 2.01 0 1.02 0 0 Z " fill="#93F2BB" transform="translate(200,322)"/>
<path d="M0 0 C5.875 4.625 5.875 4.625 7 8 C6.34 8 5.68 8 5 8 C5 7.34 5 6.68 5 6 C4.360625 5.7525 3.72125 5.505 3.0625 5.25 C1 4 1 4 0.25 1.875 C0.1675 1.25625 0.085 0.6375 0 0 Z " fill="#97F4C1" transform="translate(382,296)"/>
<path d="M0 0 C0 3.23861295 -0.6250851 5.09740189 -2 8 C-2.99 8.495 -2.99 8.495 -4 9 C-3.38461538 3.46153846 -3.38461538 3.46153846 -1.4375 1.125 C-0.963125 0.75375 -0.48875 0.3825 0 0 Z " fill="#C4FADF" transform="translate(521,288)"/>
<path d="M0 0 C0.33 0.66 0.66 1.32 1 2 C1.66 2 2.32 2 3 2 C2.67 5.3 2.34 8.6 2 12 C1.67 12 1.34 12 1 12 C0.67 8.04 0.34 4.08 0 0 Z " fill="#1FC868" transform="translate(712,227)"/>
<path d="M0 0 C0.33 1.32 0.66 2.64 1 4 C-1.375 5.5625 -1.375 5.5625 -4 7 C-4.66 6.67 -5.32 6.34 -6 6 C-4.02 4.02 -2.04 2.04 0 0 Z " fill="#C6FADF" transform="translate(582,227)"/>
<path d="M0 0 C0.33 0.66 0.66 1.32 1 2 C-0.32 3.65 -1.64 5.3 -3 7 C-3.99 6.67 -4.98 6.34 -6 6 C-4.02 4.02 -2.04 2.04 0 0 Z " fill="#C8FBE1" transform="translate(589,220)"/>
<path d="M0 0 C1.32 0.33 2.64 0.66 4 1 C1.03 3.475 1.03 3.475 -2 6 C-2 4.68 -2 3.36 -2 2 C-1.34 2 -0.68 2 0 2 C0 1.34 0 0.68 0 0 Z " fill="#21C864" transform="translate(588,217)"/>
<path d="M0 0 C1.32 0.33 2.64 0.66 4 1 C2.35 2.98 0.7 4.96 -1 7 C-1.33 5.68 -1.66 4.36 -2 3 C-1.34 3 -0.68 3 0 3 C0 2.01 0 1.02 0 0 Z " fill="#24C96A" transform="translate(193,200)"/>
</svg>
