<?xml version="1.0" encoding="UTF-8"?>
<svg version="1.1" xmlns="http://www.w3.org/2000/svg" width="1200" height="628">
<path d="M0 0 C396 0 792 0 1200 0 C1200 207.24 1200 414.48 1200 628 C804 628 408 628 0 628 C0 420.76 0 213.52 0 0 Z " fill="#FEFEFE" transform="translate(0,0)"/>
<path d="M0 0 C5.30400706 0.00230455 10.60801091 0.00256052 15.91201833 0.00148385 C16.67554467 0.00133062 17.439071 0.00117739 18.2257345 0.00101951 C19.77826201 0.00069969 21.33078952 0.00037547 22.88331702 0.00004692 C37.34001125 -0.00278438 51.79669907 0.00044189 66.25339225 0.00584729 C78.57755173 0.01031316 90.90170179 0.00953656 103.2258611 0.00492853 C117.64137857 -0.00045919 132.05689047 -0.00250991 146.4724088 0.00054079 C148.01827799 0.00085924 149.56414718 0.00117361 151.11001638 0.00148385 C152.2500291 0.00171527 152.2500291 0.00171527 153.41307238 0.00195136 C158.69234483 0.00280401 163.97161362 0.00136256 169.25088552 -0.0009957 C227.49987884 -0.02479928 227.49987884 -0.02479928 252.48613694 1.02375596 C257.80923846 1.22004743 263.13432283 1.3007081 268.4602361 1.38139337 C269.55525441 1.39823017 270.65027272 1.41506698 271.77847341 1.43241399 C273.82608368 1.46334056 275.8737019 1.49374365 277.92132619 1.52372735 C300.79176507 1.86618655 323.65408652 2.41504796 346.51739934 3.06967538 C348.80832559 3.13486731 351.09928568 3.19871874 353.3902593 3.26222223 C357.01802654 3.36308375 360.64566451 3.46776493 364.27323583 3.57543748 C366.24034648 3.63320144 368.20754454 3.68796464 370.17474416 3.74261468 C376.54040636 3.93737631 382.84559346 4.28809331 389.18339589 4.91462701 C391.98670312 5.18039751 394.77846701 5.30782735 397.5930486 5.38139337 C399.21207082 5.42888727 399.21207082 5.42888727 400.86380056 5.47734063 C402.57636037 5.52459283 402.57636037 5.52459283 404.32351735 5.57279962 C416.66670797 5.95189728 428.99257495 6.53458074 441.32351735 7.19779962 C442.18200276 7.2439541 443.04048818 7.29010858 443.9249883 7.33766168 C448.78719998 7.59992753 453.64919019 7.86600386 458.51101735 8.13529962 C454.95920895 10.50317189 452.27795916 10.53992111 448.16189626 10.69560235 C447.40072877 10.73152805 446.63956128 10.76745374 445.85532811 10.80446809 C443.27474608 10.92314868 440.69379868 11.0275436 438.11257985 11.13139337 C436.24355339 11.21280199 434.37454547 11.29463724 432.50555471 11.37686151 C409.31549581 12.37530114 386.11510038 13.1370629 362.91558388 13.87614876 C362.25178884 13.89729598 361.5879938 13.91844321 360.90408376 13.94023126 C359.90765383 13.97196579 359.90765383 13.97196579 358.891094 14.00434142 C354.28457675 14.15160301 349.67828403 14.30481474 345.07205251 14.46073907 C262.6464241 17.24635971 180.21195196 17.29998785 93.48383926 17.26476248 C82.76242614 17.2602783 72.04102404 17.26112965 61.3196111 17.26567071 C-60.0587244 17.31562707 -60.0587244 17.31562707 -109.63611552 16.19807428 C-114.11017116 16.09962689 -118.5844858 16.01556025 -123.05880687 15.93022149 C-131.84888702 15.75891063 -140.63772205 15.55147447 -149.42648265 15.32279962 C-150.1761946 15.30356439 -150.92590655 15.28432916 -151.69833705 15.26451105 C-179.6942974 14.54391667 -207.67438399 13.48557049 -235.65282008 12.26610177 C-238.6702032 12.13557127 -241.68770852 12.00828504 -244.70526072 11.88172906 C-249.43413612 11.6825052 -254.16244511 11.47300877 -258.89049479 11.25508684 C-260.6396773 11.17576329 -262.38900479 11.09956972 -264.13846537 11.02663606 C-266.53080521 10.92604311 -268.9222878 10.81357858 -271.31393382 10.69779962 C-272.01817453 10.67072522 -272.72241525 10.64365081 -273.44799659 10.61575597 C-278.26045793 10.36382434 -278.26045793 10.36382434 -280.48898265 8.13529962 C-254.15582427 6.27550808 -227.79930401 5.20185039 -201.42144725 4.20302194 C-197.95115993 4.07136468 -194.48093189 3.93822469 -191.01071116 3.80482477 C-159.85296188 2.61066357 -128.71474681 1.59953715 -97.53448436 1.28403085 C-92.5417015 1.22322025 -87.55709467 1.11288772 -82.56820628 0.90405267 C-55.05911059 -0.21924463 -27.52652676 -0.01229698 0 0 Z " fill="#767676" transform="translate(504.4889826476574,328.86470038071275)"/>
<path d="M0 0 C2.16793322 1.91209017 4.29681478 3.85109003 6.390625 5.84375 C5.24405625 9.28345626 4.54544222 9.7219729 1.578125 11.59375 C0.89105469 12.04234375 0.20398438 12.4909375 -0.50390625 12.953125 C-2.609375 13.84375 -2.609375 13.84375 -4.6328125 13.7109375 C-7.1259711 12.61710112 -8.51793265 11.16400076 -10.421875 9.21875 C-25.03358009 -4.14326979 -44.02464123 -5.10564255 -62.89208984 -4.34716797 C-77.88752193 -3.29358056 -92.41525312 3.82419315 -102.609375 14.84375 C-110.5861645 24.39443519 -113.62425988 35.56292313 -113.05859375 47.875 C-111.73357853 59.58122143 -106.03474367 70.32886815 -97.109375 77.96875 C-79.83355567 91.036692 -59.47704273 94.088066 -38.39794922 91.17504883 C-26.89206483 89.24602917 -17.01795959 83.59338677 -7.609375 76.84375 C-6.619375 75.35875 -6.619375 75.35875 -5.609375 73.84375 C-2.39084669 74.47440757 -0.10136431 75.62395695 2.640625 77.40625 C3.34703125 77.86128906 4.0534375 78.31632812 4.78125 78.78515625 C5.57789063 79.30916016 5.57789063 79.30916016 6.390625 79.84375 C2.06580627 90.21871409 -11.81572542 95.51327721 -21.49414062 99.64916992 C-26.5328512 101.66878219 -31.50042599 102.73642367 -36.859375 103.53125 C-37.69637939 103.65717529 -38.53338379 103.78310059 -39.39575195 103.9128418 C-61.37047352 107.04481746 -84.86434198 103.52166604 -103.4375 90.92578125 C-115.57317503 81.60066899 -125.03649898 69.28621435 -127.609375 53.84375 C-129.13285225 37.07009428 -127.06331156 22.50441556 -116.609375 8.84375 C-89.20928335 -23.45531854 -32.42444357 -26.79385157 0 0 Z " fill="#767676" transform="translate(822.609375,196.15625)"/>
<path d="M0 0 C0.93972656 0.31195313 1.87945313 0.62390625 2.84765625 0.9453125 C12.68968393 4.56571836 26.33912632 11.09564342 31 21 C29.62085075 22.06365759 28.22085398 23.10032483 26.8125 24.125 C26.03519531 24.70507812 25.25789062 25.28515625 24.45703125 25.8828125 C22 27 22 27 19.48828125 26.41796875 C16.8237287 24.89955026 14.68269423 23.20576769 12.375 21.1875 C0.45810539 11.45654464 -13.75836082 8.41985841 -28.875 8.5625 C-30.01541748 8.57079834 -31.15583496 8.57909668 -32.33081055 8.58764648 C-48.89656809 8.9196469 -63.86556283 14.30203953 -76.06640625 25.8984375 C-85.41924933 36.06374978 -88.53760896 47.27867833 -88.26953125 60.82421875 C-87.73431108 72.43295971 -82.14271367 81.95197171 -73.97265625 89.99609375 C-58.15090347 103.22508258 -39.87670131 105.75834804 -20 105 C-5.51557753 103.68664563 6.26895813 97.047305 18 89 C18.99 88.34 19.98 87.68 21 87 C22.67180274 87.94934513 24.33733936 88.90973313 26 89.875 C26.928125 90.40867187 27.85625 90.94234375 28.8125 91.4921875 C29.534375 91.98976563 30.25625 92.48734375 31 93 C31 93.66 31 94.32 31 95 C30.34 95 29.68 95 29 95 C28.76023437 95.59039062 28.52046875 96.18078125 28.2734375 96.7890625 C23.95793613 104.2816201 12.63245431 108.72380499 5 112 C3.906875 112.48984375 2.81375 112.9796875 1.6875 113.484375 C-8.56850055 117.28764187 -18.80670066 117.50716053 -29.625 117.5625 C-30.74106125 117.5756424 -30.74106125 117.5756424 -31.87966919 117.58905029 C-50.70739342 117.74083873 -69.7232423 113.09571205 -84 100 C-85.78688278 98.06862535 -87.3744222 96.07712719 -89 94 C-89.66 93.38125 -90.32 92.7625 -91 92.125 C-93.87701579 89.06817072 -95.89500879 85.61662918 -98 82 C-98.556875 81.05125 -99.11375 80.1025 -99.6875 79.125 C-105.11173541 66.2101538 -105.12164959 47.99666718 -100 35 C-96.70299965 28.17620836 -92.28592745 22.39911647 -87 17 C-86.42894531 16.41605469 -85.85789062 15.83210938 -85.26953125 15.23046875 C-75.96714861 6.44378323 -64.36760773 0.89033883 -52 -2 C-51.04480469 -2.22429687 -50.08960938 -2.44859375 -49.10546875 -2.6796875 C-32.82926276 -5.79413845 -15.70818686 -5.26632854 0 0 Z " fill="#767676" transform="translate(596,183)"/>
<path d="M0 0 C5.80424206 4.46402645 10.35697854 9.76043667 12 17 C12.82743941 25.48987313 13.30532983 33.83600019 8 41 C6.948125 42.485 6.948125 42.485 5.875 44 C5.25625 44.66 4.6375 45.32 4 46 C3.34 46 2.68 46 2 46 C2 46.66 2 47.32 2 48 C-6.75024691 53.21649335 -14.87682891 54.13127895 -25 53 C-32.4787017 50.93491334 -37.67280409 46.32807202 -42 40 C-46.25234982 32.38970605 -47.06534739 24.46312645 -44.875 16.0625 C-42.59711784 9.00321425 -38.2778707 3.03577402 -32 -1 C-22.0941038 -6.0430017 -9.54114264 -5.88039173 0 0 Z " fill="#F9F9FB" transform="translate(629,391)"/>
<path d="M0 0 C2.875 2.4375 2.875 2.4375 5 5 C5.70125 5.78375 6.4025 6.5675 7.125 7.375 C11.15288109 13.01403352 12.54141789 18.05005322 12.4375 24.9375 C12.42992676 25.64189209 12.42235352 26.34628418 12.41455078 27.07202148 C12.23777189 32.6418468 11.34982196 36.57159759 8 41 C7.55269531 41.62261719 7.10539063 42.24523437 6.64453125 42.88671875 C2.55444826 48.11720022 -2.34612186 51.761002 -9 53 C-18.51036501 53.73479641 -27.06657009 54.05985237 -35 48 C-40.73091303 42.79206002 -44.92645596 36.83364519 -45.43359375 28.87890625 C-45.45663798 27.44028813 -45.45745463 26.00116429 -45.4375 24.5625 C-45.43137695 23.81258789 -45.42525391 23.06267578 -45.41894531 22.29003906 C-45.25611267 16.54580448 -44.32323538 12.80022888 -41 8 C-40.46375 7.13375 -39.9275 6.2675 -39.375 5.375 C-28.74424486 -5.25575514 -13.15277977 -7.58624751 0 0 Z " fill="#F9FAFC" transform="translate(741,391)"/>
<path d="M0 0 C24.75 0 49.5 0 75 0 C75 3.63 75 7.26 75 11 C64.77 11 54.54 11 44 11 C44 45.65 44 80.3 44 116 C39.38 116 34.76 116 30 116 C30 81.35 30 46.7 30 11 C20.1 11 10.2 11 0 11 C0 7.37 0 3.74 0 0 Z " fill="#747474" transform="translate(358,182)"/>
<path d="M0 0 C3.24402626 1.86308297 6.18191059 3.91631182 9.12890625 6.22265625 C8.46890625 7.54265625 7.80890625 8.86265625 7.12890625 10.22265625 C3.01583922 10.22265625 2.44238286 10.05048294 -0.68359375 7.84765625 C-6.88545772 3.80843488 -13.5102679 2.04971164 -20.87109375 3.22265625 C-28.20818675 5.86882094 -33.72054369 9.51481132 -37.68359375 16.34765625 C-40.20487512 23.06621526 -39.77295493 30.01150289 -36.93359375 36.53515625 C-33.57430843 42.57994473 -28.35194185 46.06237355 -21.87109375 48.22265625 C-13.48195031 49.01731132 -6.39696932 49.35944759 0.45703125 43.87109375 C4.25732016 40.12407992 5.07575863 37.48839435 6.12890625 32.22265625 C0.51890625 32.22265625 -5.09109375 32.22265625 -10.87109375 32.22265625 C-10.87109375 30.57265625 -10.87109375 28.92265625 -10.87109375 27.22265625 C-2.95109375 27.22265625 4.96890625 27.22265625 13.12890625 27.22265625 C12.20427039 36.4690149 11.55682704 42.32987369 4.87890625 48.53515625 C-3.68714952 55.11202334 -13.45530017 55.38171485 -23.87109375 54.22265625 C-32.09050314 52.15669659 -37.76245238 47.28391047 -42.18359375 40.22265625 C-45.95705664 33.88403093 -46.63085401 27.49313983 -45.87109375 20.22265625 C-43.16991806 10.22537013 -38.02937029 4.54834525 -29.17578125 -0.578125 C-20.76684953 -4.95361998 -8.40869182 -3.96958548 0 0 Z " fill="#141892" transform="translate(812.87109375,389.77734375)"/>
<path d="M0 0 C3.22444254 1.07481418 3.83274667 1.67572058 5.9375 4.1875 C6.54722656 4.90550781 7.15695312 5.62351562 7.78515625 6.36328125 C8.51605469 7.23339844 9.24695313 8.10351562 10 9 C11.95379743 11.2955531 13.91441856 13.5852406 15.875 15.875 C16.39199463 16.48061768 16.90898926 17.08623535 17.44165039 17.71020508 C21.1651074 22.06133556 24.97293367 26.323752 28.8671875 30.5234375 C31.75211026 33.87332949 34.34744651 37.46326201 37 41 C37.33 27.47 37.66 13.94 38 0 C39.98 0 41.96 0 44 0 C44 18.15 44 36.3 44 55 C39.93714922 52.96857461 37.62251483 50.69364027 34.6875 47.375 C33.95358032 46.55878174 33.95358032 46.55878174 33.20483398 45.72607422 C31.7967346 44.15635154 30.3970987 42.57951234 29 41 C28.38898437 40.31421875 27.77796875 39.6284375 27.1484375 38.921875 C25.41726907 36.96045264 23.7067683 34.98271288 22 33 C21.53384277 32.46020508 21.06768555 31.92041016 20.58740234 31.36425781 C18.97314128 29.49437623 17.36121851 27.62250368 15.75 25.75 C15.22994385 25.14687988 14.7098877 24.54375977 14.17407227 23.92236328 C13.67834717 23.34470215 13.18262207 22.76704102 12.671875 22.171875 C12.2294043 21.6572168 11.78693359 21.14255859 11.33105469 20.61230469 C9.82664327 18.79001324 8.41782931 16.89043908 7 15 C6.67 28.2 6.34 41.4 6 55 C4.02 55 2.04 55 0 55 C0 36.85 0 18.7 0 0 Z " fill="#181D8D" transform="translate(524,388)"/>
<path d="M0 0 C5.80424206 4.46402645 10.35697854 9.76043667 12 17 C12.82743941 25.48987313 13.30532983 33.83600019 8 41 C6.948125 42.485 6.948125 42.485 5.875 44 C5.25625 44.66 4.6375 45.32 4 46 C3.34 46 2.68 46 2 46 C2 46.66 2 47.32 2 48 C-6.75024691 53.21649335 -14.87682891 54.13127895 -25 53 C-32.4787017 50.93491334 -37.67280409 46.32807202 -42 40 C-46.25234982 32.38970605 -47.06534739 24.46312645 -44.875 16.0625 C-42.59711784 9.00321425 -38.2778707 3.03577402 -32 -1 C-22.0941038 -6.0430017 -9.54114264 -5.88039173 0 0 Z M-35 9 C-39.54607034 15.63318442 -41.40139058 22.01321304 -40 30 C-37.76553651 36.8215119 -34.1243438 42.15930982 -28 46 C-22.06290583 48.86992426 -15.26866401 49.00439153 -8.875 47.5 C-1.95372198 44.78092649 2.74896131 40.09293926 6.078125 33.5859375 C8.47985501 26.84888128 7.87054169 20.13143806 5.0625 13.625 C1.54053963 7.40153593 -3.70123975 4.48107603 -10.0625 1.625 C-19.33422846 -0.34770818 -28.62699481 1.51396292 -35 9 Z " fill="#13188F" transform="translate(629,391)"/>
<path d="M0 0 C2.875 2.4375 2.875 2.4375 5 5 C5.70125 5.78375 6.4025 6.5675 7.125 7.375 C11.15288109 13.01403352 12.54141789 18.05005322 12.4375 24.9375 C12.42992676 25.64189209 12.42235352 26.34628418 12.41455078 27.07202148 C12.23777189 32.6418468 11.34982196 36.57159759 8 41 C7.55269531 41.62261719 7.10539063 42.24523437 6.64453125 42.88671875 C2.55444826 48.11720022 -2.34612186 51.761002 -9 53 C-18.51036501 53.73479641 -27.06657009 54.05985237 -35 48 C-40.73091303 42.79206002 -44.92645596 36.83364519 -45.43359375 28.87890625 C-45.45663798 27.44028813 -45.45745463 26.00116429 -45.4375 24.5625 C-45.43137695 23.81258789 -45.42525391 23.06267578 -45.41894531 22.29003906 C-45.25611267 16.54580448 -44.32323538 12.80022888 -41 8 C-40.46375 7.13375 -39.9275 6.2675 -39.375 5.375 C-28.74424486 -5.25575514 -13.15277977 -7.58624751 0 0 Z M-35 9 C-39.54607034 15.63318442 -41.40139058 22.01321304 -40 30 C-37.76553651 36.8215119 -34.1243438 42.15930982 -28 46 C-21.7445762 49.04886202 -14.26862854 49.15349671 -7.5859375 47.34765625 C-1.83046686 44.75880556 2.32755058 40.50898823 5.03515625 34.828125 C8.00473885 26.81715799 7.78292218 20.1265277 4.39453125 12.33203125 C0.87477941 6.44605969 -5.61489444 3.01634912 -12 1 C-20.62046099 -0.12440795 -29.21484182 2.20447616 -35 9 Z " fill="#161A8C" transform="translate(741,391)"/>
<path d="M0 0 C1.98 0 3.96 0 6 0 C6 7.59 6 15.18 6 23 C15.24 23 24.48 23 34 23 C34 15.41 34 7.82 34 0 C35.98 0 37.96 0 40 0 C40 18.15 40 36.3 40 55 C38.02 55 36.04 55 34 55 C34 46.42 34 37.84 34 29 C24.76 29 15.52 29 6 29 C6 37.58 6 46.16 6 55 C4.02 55 2.04 55 0 55 C0 36.85 0 18.7 0 0 Z " fill="#090E94" transform="translate(466,388)"/>
<path d="M0 0 C2.85235551 2.16087538 5.46385683 4.47767777 8 7 C7.34 8.32 6.68 9.64 6 11 C3.20748391 10.58629391 1.91761969 9.93320515 -0.3125 8.125 C-6.54086226 3.20024844 -12.21785087 2.10816815 -20 3 C-27.06349337 4.6127268 -31.82616973 8.31131519 -36.375 13.9375 C-39.51880754 19.96092958 -39.12709442 28.13051007 -37.26953125 34.5078125 C-34.55476026 40.33625959 -30.34505993 45.16175671 -24.2109375 47.4921875 C-16.43784538 49.27752668 -8.93929458 48.6814262 -1.8046875 45.16796875 C0.07338313 44.04837461 0.07338313 44.04837461 1.60546875 42.34375 C2.06566406 41.9003125 2.52585937 41.456875 3 41 C5.1875 41.3125 5.1875 41.3125 7 42 C7 46 7 46 5.4609375 47.6328125 C4.77257812 48.12523437 4.08421875 48.61765625 3.375 49.125 C2.70210938 49.62257813 2.02921875 50.12015625 1.3359375 50.6328125 C-6.59001392 55.27174728 -16.09368376 55.00237138 -25 54 C-32.09510754 52.05232342 -36.93042319 48.02806065 -41 42 C-41.4125 41.45085937 -41.825 40.90171875 -42.25 40.3359375 C-46.45831389 33.70199824 -45.85396049 25.51335412 -45 18 C-42.70573856 10.17311695 -37.73938051 4.24628299 -31.078125 -0.31640625 C-22.224601 -5.09264946 -8.80805151 -4.96952323 0 0 Z " fill="#1A1F8E" transform="translate(442,390)"/>
<path d="M0 0 C10.56 0 21.12 0 32 0 C32 1.98 32 3.96 32 6 C23.42 6 14.84 6 6 6 C6 11.61 6 17.22 6 23 C14.58 23 23.16 23 32 23 C32 24.65 32 26.3 32 28 C23.42 28 14.84 28 6 28 C6 35.26 6 42.52 6 50 C14.58 50 23.16 50 32 50 C32 51.65 32 53.3 32 55 C21.44 55 10.88 55 0 55 C0 36.85 0 18.7 0 0 Z " fill="#212485" transform="translate(353,388)"/>
<path d="M0 0 C3.10546875 -0.6171875 3.10546875 -0.6171875 7 0 C9.67893199 2.95536081 11.44060391 6.37027502 13.3125 9.875 C14.34838347 11.72761324 15.38606088 13.57922487 16.42578125 15.4296875 C16.87348877 16.25710449 17.32119629 17.08452148 17.7824707 17.93701172 C18.95728775 20.1236653 18.95728775 20.1236653 21 22 C21.51949219 21.0821875 22.03898438 20.164375 22.57421875 19.21875 C24.00848164 16.68802226 25.45739747 14.16632764 26.9140625 11.6484375 C28.12813231 9.54628807 29.2848018 7.44789818 30.3984375 5.2890625 C31.5625 3.125 31.5625 3.125 34 0 C37.8125 -0.5 37.8125 -0.5 41 0 C40.23998531 1.48475443 39.46570515 2.9621984 38.6875 4.4375 C38.15125 5.45714844 37.615 6.47679687 37.0625 7.52734375 C35.63457722 10.0735632 34.02188964 12.29726627 32.1875 14.56640625 C22.37156955 27.17040705 22.41588161 39.41144803 23 55 C21.35 55 19.7 55 18 55 C18.04302246 54.2972998 18.08604492 53.59459961 18.13037109 52.87060547 C19.01574465 34.28380435 15.82265646 22.895252 4.54394531 8.12255859 C2.65132366 5.52065274 1.2939243 2.93768739 0 0 Z " fill="#0E1291" transform="translate(837,388)"/>
<path d="M0 0 C1.98 0 3.96 0 6 0 C6 16.5 6 33 6 50 C12.93 50 19.86 50 27 50 C27 51.65 27 53.3 27 55 C18.09 55 9.18 55 0 55 C0 36.85 0 18.7 0 0 Z " fill="#0E1287" transform="translate(657,388)"/>
<path d="M0 0 C0.33 0 0.66 0 1 0 C0.91621094 1.15757812 0.83242188 2.31515625 0.74609375 3.5078125 C0.64286558 5.04685066 0.54002131 6.5859146 0.4375 8.125 C0.38142578 8.88554687 0.32535156 9.64609375 0.26757812 10.4296875 C-0.01498074 14.79993128 0.06852301 18.68070669 1 23 C1.33 21.68 1.66 20.36 2 19 C2.66 19 3.32 19 4 19 C4.43699219 19.99580078 4.43699219 19.99580078 4.8828125 21.01171875 C7.95349683 27.62624317 10.56275444 31.88595877 17.3203125 35.10546875 C23.08805304 37.03085153 30.25298364 37.03629999 35.9375 34.75 C42.69103098 30.89083944 45.56257208 26.84560113 49 20 C49.66 21.32 50.32 22.64 51 24 C52.98598493 18.04204521 53.57045059 12.25107435 54 6 C54.33 6 54.66 6 55 6 C55.76729501 23.56253021 55.76729501 23.56253021 51 30 C50.29875 30.99 49.5975 31.98 48.875 33 C48.25625 33.66 47.6375 34.32 47 35 C46.34 35 45.68 35 45 35 C45 35.66 45 36.32 45 37 C36.24975309 42.21649335 28.12317109 43.13127895 18 42 C10.5212983 39.93491334 5.32719591 35.32807202 1 29 C-2.74458299 22.29844003 -4.21934467 14.84902182 -2.328125 7.328125 C-1.5920762 4.86999976 -0.82165383 2.43072593 0 0 Z " fill="#171C8F" transform="translate(586,402)"/>
<path d="M0 0 C9.9 0 19.8 0 30 0 C30 1.65 30 3.3 30 5 C26.04 5 22.08 5 18 5 C18 21.5 18 38 18 55 C16.35 55 14.7 55 13 55 C13 38.5 13 22 13 5 C8.71 5 4.42 5 0 5 C0 3.35 0 1.7 0 0 Z " fill="#09109F" transform="translate(310,388)"/>
<path d="M0 0 C1.20970459 0.00523682 2.41940918 0.01047363 3.66577148 0.01586914 C4.97094727 0.0190918 6.27612305 0.02231445 7.62084961 0.02563477 C9.00952213 0.03399138 10.39819401 0.04245634 11.78686523 0.05102539 C13.17944179 0.05603873 14.57202005 0.06060193 15.96459961 0.06469727 C19.38456394 0.07653105 22.80444367 0.09301659 26.22436523 0.11352539 C26.22436523 1.76352539 26.22436523 3.41352539 26.22436523 5.11352539 C17.64436523 5.11352539 9.06436523 5.11352539 0.22436523 5.11352539 C0.22436523 12.37352539 0.22436523 19.63352539 0.22436523 27.11352539 C8.47436523 27.11352539 16.72436523 27.11352539 25.22436523 27.11352539 C25.22436523 28.43352539 25.22436523 29.75352539 25.22436523 31.11352539 C15.65436523 31.11352539 6.08436523 31.11352539 -3.77563477 31.11352539 C-3.79854796 26.85930825 -3.81847366 22.60530383 -3.83056641 18.35107422 C-3.83560577 16.90282467 -3.8424373 15.45458022 -3.85107422 14.00634766 C-3.86315724 11.92877951 -3.86886688 9.85127842 -3.87329102 7.77368164 C-3.87852783 6.52208252 -3.88376465 5.2704834 -3.88916016 3.98095703 C-3.73760117 0.15287049 -3.73760117 0.15287049 0 0 Z " fill="#111690" transform="translate(358.775634765625,410.886474609375)"/>
<path d="M0 0 C4.65521114 1.55173705 7.26148571 5.0154265 10 9 C10.80903279 11.49724572 10.94471161 13.34615739 11 16 C8.525 15.01 8.525 15.01 6 14 C6 27.53 6 41.06 6 55 C4.02 55 2.04 55 0 55 C0 36.85 0 18.7 0 0 Z " fill="#0A0F9C" transform="translate(524,388)"/>
<path d="M0 0 C1.98 0 3.96 0 6 0 C6 16.5 6 33 6 50 C5.67 48.68 5.34 47.36 5 46 C4.34 45.67 3.68 45.34 3 45 C3 31.47 3 17.94 3 4 C2.95101562 7.43019531 2.90203125 10.86039062 2.8515625 14.39453125 C2.797578 17.71073838 2.74026052 21.02687227 2.68261719 24.34301758 C2.64429584 26.65057944 2.60944859 28.95820168 2.578125 31.26586914 C2.53254318 34.57980963 2.47453712 37.89333327 2.4140625 41.20703125 C2.40251129 42.2414888 2.39096008 43.27594635 2.37905884 44.3417511 C2.35918915 45.3025206 2.33931946 46.2632901 2.31884766 47.25317383 C2.30552399 48.09922684 2.29220032 48.94527985 2.2784729 49.81697083 C2 52 2 52 0 55 C0 36.85 0 18.7 0 0 Z " fill="#2E328B" transform="translate(657,388)"/>
<path d="M0 0 C0.33 0 0.66 0 1 0 C1 17.82 1 35.64 1 54 C1.33 53.34 1.66 52.68 2 52 C2.66 52 3.32 52 4 52 C3.67 46.39 3.34 40.78 3 35 C2.67 35 2.34 35 2 35 C1.91318524 31.37515001 1.85967279 27.75056557 1.8125 24.125 C1.78736328 23.09246094 1.76222656 22.05992187 1.73632812 20.99609375 C1.72666016 20.00996094 1.71699219 19.02382813 1.70703125 18.0078125 C1.68346558 16.64100342 1.68346558 16.64100342 1.65942383 15.24658203 C1.77181396 14.50520996 1.8842041 13.76383789 2 13 C2.99 12.34 3.98 11.68 5 11 C5 14.96 5 18.92 5 23 C4.34 23 3.68 23 3 23 C3 24.98 3 26.96 3 29 C3.66 28.67 4.32 28.34 5 28 C7.17824961 27.91440882 9.35915255 27.89286588 11.5390625 27.90234375 C12.84101563 27.90556641 14.14296875 27.90878906 15.484375 27.91210938 C16.86458399 27.92046534 18.24479232 27.92893029 19.625 27.9375 C21.01301926 27.94251499 22.40104022 27.9470779 23.7890625 27.95117188 C27.19275132 27.96299024 30.59635439 27.97946566 34 28 C34 28.33 34 28.66 34 29 C24.76 29 15.52 29 6 29 C6 37.58 6 46.16 6 55 C4.02 55 2.04 55 0 55 C0 36.85 0 18.7 0 0 Z " fill="#383DA3" transform="translate(466,388)"/>
<path d="M0 0 C1.98 0 3.96 0 6 0 C6 18.15 6 36.3 6 55 C2.76524552 53.38262276 1.29427979 52.52370777 -1 50 C-0.67 49.01 -0.34 48.02 0 47 C0.99 47 1.98 47 3 47 C3.33 32.48 3.66 17.96 4 3 C3.01 3.495 3.01 3.495 2 4 C2 15.55 2 27.1 2 39 C1.01 39.495 1.01 39.495 0 40 C0 26.8 0 13.6 0 0 Z " fill="#303495" transform="translate(562,388)"/>
<path d="M0 0 C2.1875 0.3125 2.1875 0.3125 4 1 C4 5 4 5 2.4609375 6.6328125 C1.77257812 7.12523437 1.08421875 7.61765625 0.375 8.125 C-0.63433594 8.87136719 -0.63433594 8.87136719 -1.6640625 9.6328125 C-7.20555022 12.87615815 -12.13355929 13.27172465 -18.375 13.125 C-19.47908203 13.11146484 -19.47908203 13.11146484 -20.60546875 13.09765625 C-22.4037888 13.07430144 -24.20193911 13.03843836 -26 13 C-25.67 11.68 -25.34 10.36 -25 9 C-24.16597656 8.90203125 -23.33195312 8.8040625 -22.47265625 8.703125 C-10.98682362 7.31888742 -10.98682362 7.31888742 -1.39453125 1.3515625 C-0.93433594 0.90554688 -0.47414063 0.45953125 0 0 Z " fill="#1A1E93" transform="translate(445,431)"/>
<path d="M0 0 C3.1015625 -0.61328125 3.1015625 -0.61328125 7 0 C9.70472177 2.92946269 11.48416497 6.32043885 13.375 9.8125 C13.90738281 10.74126953 14.43976562 11.67003906 14.98828125 12.62695312 C18.75438399 19.26315198 18.75438399 19.26315198 20 23 C19.34 23 18.68 23 18 23 C18 23.66 18 24.32 18 25 C16.13647461 24.69140625 16.13647461 24.69140625 14 24 C12.34732007 21.68210901 10.94530129 19.46994467 9.5625 17 C8.97480835 15.98474243 8.97480835 15.98474243 8.37524414 14.94897461 C7.23632159 12.97347539 6.11540712 10.98885035 5 9 C4.16082031 7.51693359 4.16082031 7.51693359 3.3046875 6.00390625 C2.18820052 4.0101795 1.08462377 2.01118679 0 0 Z " fill="#181C91" transform="translate(837,388)"/>
<path d="M0 0 C1.65 0 3.3 0 5 0 C5 7.59 5 15.18 5 23 C4.67 23 4.34 23 4 23 C3.67 19.37 3.34 15.74 3 12 C1.77215191 13.00559794 1.77215191 13.00559794 1.88647461 15.04125977 C1.89171143 15.91580811 1.89694824 16.79035645 1.90234375 17.69140625 C1.90556641 18.63564453 1.90878906 19.57988281 1.91210938 20.55273438 C1.92048828 21.54595703 1.92886719 22.53917969 1.9375 23.5625 C1.94201172 24.55958984 1.94652344 25.55667969 1.95117188 26.58398438 C1.96299993 29.05604849 1.97948151 31.52799518 2 34 C2.33 34 2.66 34 3 34 C3 40.6 3 47.2 3 54 C2.01 54 1.02 54 0 54 C0 36.18 0 18.36 0 0 Z " fill="#0D1189" transform="translate(467,388)"/>
<path d="M0 0 C0.66 0 1.32 0 2 0 C3.125 3.75 3.125 3.75 2 6 C-2.29 6 -6.58 6 -11 6 C-11 22.83 -11 39.66 -11 57 C-13.475 57.495 -13.475 57.495 -16 58 C-16 57.34 -16 56.68 -16 56 C-16.66 56 -17.32 56 -18 56 C-18 39.5 -18 23 -18 6 C-21.96 6 -25.92 6 -30 6 C-30 5.67 -30 5.34 -30 5 C-25.71 5 -21.42 5 -17 5 C-17 21.5 -17 38 -17 55 C-15.35 55 -13.7 55 -12 55 C-12 38.5 -12 22 -12 5 C-8.04 5 -4.08 5 0 5 C0 3.35 0 1.7 0 0 Z " fill="#A8AEE9" transform="translate(340,388)"/>
<path d="M0 0 C0.66 0 1.32 0 2 0 C2.05059881 6.22961977 2.08569062 12.4591868 2.10986328 18.68896484 C2.11993751 20.8094277 2.13359733 22.92987661 2.15087891 25.05029297 C2.17506489 28.09345943 2.18646869 31.13644266 2.1953125 34.1796875 C2.20563507 35.13181122 2.21595764 36.08393494 2.22659302 37.06491089 C2.22674408 37.94567291 2.22689514 38.82643494 2.22705078 39.73388672 C2.231492 40.51110077 2.23593323 41.28831482 2.24050903 42.08908081 C2 44 2 44 0 46 C-0.66 44.68 -1.32 43.36 -2 42 C-2.99 42 -3.98 42 -5 42 C-5 41.34 -5 40.68 -5 40 C-4.34733154 39.4639917 -3.69466309 38.9279834 -3.0222168 38.37573242 C-0.20874033 35.07041556 -0.51206479 32.12009623 -0.64453125 27.98828125 C-0.65256271 27.21945114 -0.66059418 26.45062103 -0.66886902 25.65849304 C-0.69781803 23.20912017 -0.75408574 20.76133172 -0.8125 18.3125 C-0.8549561 15.8531643 -0.89179415 13.3938626 -0.92399597 10.93437195 C-0.94576114 9.40512981 -0.97449069 7.87596853 -1.01069641 6.34700012 C-1.04434551 4.56498084 -1.02733529 2.78212731 -1 1 C-0.67 0.67 -0.34 0.34 0 0 Z " fill="#090F9A" transform="translate(564,391)"/>
<path d="M0 0 C3.45281166 1.15093722 4.38082163 2.3205993 6.6875 5.0625 C7.31011719 5.79597656 7.93273437 6.52945312 8.57421875 7.28515625 C9.04472656 7.85105469 9.51523437 8.41695313 10 9 C7 10 7 10 4.875 9.1875 C3 8 3 8 2 6 C2 21.18 2 36.36 2 52 C2.66 52 3.32 52 4 52 C4.33 39.79 4.66 27.58 5 15 C5.33 15 5.66 15 6 15 C6 28.2 6 41.4 6 55 C4.02 55 2.04 55 0 55 C0 36.85 0 18.7 0 0 Z " fill="#2B2E8A" transform="translate(524,388)"/>
<path d="M0 0 C0.66 0 1.32 0 2 0 C2.34880023 4.21528794 1.57578482 6.14106876 -0.9375 9.5 C-5.10578179 15.09712543 -5.14738443 19.98909759 -5.0625 26.8125 C-5.05798828 27.50537109 -5.05347656 28.19824219 -5.04882812 28.91210938 C-5.03713156 30.60811068 -5.01919924 32.30406703 -5 34 C-5.99 33.67 -6.98 33.34 -8 33 C-8 30.36 -8 27.72 -8 25 C-8.66 24.67 -9.32 24.34 -10 24 C-10.05410687 22.22950311 -10.09284119 20.45853151 -10.125 18.6875 C-10.14820313 17.70136719 -10.17140625 16.71523438 -10.1953125 15.69921875 C-10 13 -10 13 -8 10 C-7.34 8.948125 -6.68 7.89625 -6 6.8125 C-5.34 5.884375 -4.68 4.95625 -4 4 C-3.34 4 -2.68 4 -2 4 C-1.34 2.68 -0.68 1.36 0 0 Z " fill="#0B1094" transform="translate(408,394)"/>
<path d="M0 0 C1.31611677 0.95336021 2.62778961 1.91285774 3.9375 2.875 C4.66839844 3.40867187 5.39929688 3.94234375 6.15234375 4.4921875 C8 6 8 6 9 8 C13.89269226 10.68819023 18.91437614 10.09080006 24.29296875 9.83398438 C29.58991021 9.69042241 29.58991021 9.69042241 31.9921875 11.50390625 C32.32476563 11.99761719 32.65734375 12.49132812 33 13 C28.88214667 14.14251255 24.87401508 14.22079715 20.625 14.25 C19.8825 14.270625 19.14 14.29125 18.375 14.3125 C13.53427921 14.34671004 10.15671216 13.75398267 6 11 C5.67 10.01 5.34 9.02 5 8 C4.34 8 3.68 8 3 8 C2.67 7.34 2.34 6.68 2 6 C1.01 5.67 0.02 5.34 -1 5 C-0.67 3.35 -0.34 1.7 0 0 Z " fill="#0F1490" transform="translate(777,430)"/>
<path d="M0 0 C9.9 0 19.8 0 30 0 C30 1.65 30 3.3 30 5 C26.04 5 22.08 5 18 5 C18 4.67 18 4.34 18 4 C21.465 3.505 21.465 3.505 25 3 C20.71 2.67 16.42 2.34 12 2 C12.33 2.99 12.66 3.98 13 5 C8.71 5 4.42 5 0 5 C0 3.35 0 1.7 0 0 Z " fill="#15198E" transform="translate(310,388)"/>
<path d="M0 0 C1.98 0 3.96 0 6 0 C6 18.15 6 36.3 6 55 C5.67 55 5.34 55 5 55 C4.36646089 37.66023663 3.82587737 20.35422229 4 3 C3.01 3 2.02 3 1 3 C1 9.6 1 16.2 1 23 C0.67 23 0.34 23 0 23 C0 15.41 0 7.82 0 0 Z " fill="#343795" transform="translate(500,388)"/>
<path d="M0 0 C0.33 0 0.66 0 1 0 C0.98952637 1.24612061 0.97905273 2.49224121 0.96826172 3.77612305 C0.93201256 8.40727862 0.90908156 13.0384217 0.89013672 17.66967773 C0.88009037 19.67262889 0.86645091 21.67556542 0.84912109 23.6784668 C0.82481287 26.56042088 0.81350313 29.44218072 0.8046875 32.32421875 C0.79436493 33.21711105 0.78404236 34.11000336 0.77340698 35.029953 C0.77259644 39.53973048 1.0348185 42.85641044 3 47 C3 47.99 3 48.98 3 50 C1.68 50 0.36 50 -1 50 C-1.02526838 43.03996553 -1.04283222 36.0799428 -1.05493164 29.11987305 C-1.05997341 26.75007688 -1.06680665 24.38028385 -1.07543945 22.01049805 C-1.0875119 18.61245961 -1.09322971 15.21446215 -1.09765625 11.81640625 C-1.10281754 10.74975235 -1.10797882 9.68309845 -1.11329651 8.5841217 C-1.11337204 7.60318039 -1.11344757 6.62223907 -1.11352539 5.61157227 C-1.115746 4.74331314 -1.11796661 3.87505402 -1.12025452 2.98048401 C-1 1 -1 1 0 0 Z " fill="#0B0E9D" transform="translate(660,391)"/>
<path d="M0 0 C0.33 0 0.66 0 1 0 C1 16.17 1 32.34 1 49 C-0.65 49 -2.3 49 -4 49 C-4 33.16 -4 17.32 -4 1 C-3.67 1 -3.34 1 -3 1 C-2.67 15.85 -2.34 30.7 -2 46 C-1.67 46 -1.34 46 -1 46 C-0.67 30.82 -0.34 15.64 0 0 Z " fill="#09107A" transform="translate(327,394)"/>
<path d="M0 0 C8.91 0 17.82 0 27 0 C27 0.66 27 1.32 27 2 C27.66 2.66 28.32 3.32 29 4 C19.76 4 10.52 4 1 4 C1 6.31 1 8.62 1 11 C0.34 11 -0.32 11 -1 11 C-1.0270043 9.54176788 -1.04639787 8.08339325 -1.0625 6.625 C-1.07410156 5.81289063 -1.08570313 5.00078125 -1.09765625 4.1640625 C-1 2 -1 2 0 0 Z " fill="#282AAC" transform="translate(356,390)"/>
<path d="M0 0 C8.25 0 16.5 0 25 0 C25 0.33 25 0.66 25 1 C17.08 1 9.16 1 1 1 C1 6.94 1 12.88 1 19 C8.92 19.33 16.84 19.66 25 20 C25.33 20.66 25.66 21.32 26 22 C17.42 22 8.84 22 0 22 C0 14.74 0 7.48 0 0 Z " fill="#D8DDFB" transform="translate(359,416)"/>
<path d="M0 0 C0.66 0 1.32 0 2 0 C2 15.51 2 31.02 2 47 C1.34 47 0.68 47 0 47 C-0.78457558 31.25155777 -1.16609843 15.73335879 0 0 Z " fill="#080CA7" transform="translate(502,392)"/>
<path d="M0 0 C8.58 0 17.16 0 26 0 C26 0.33 26 0.66 26 1 C25.01604248 1.03758423 25.01604248 1.03758423 24.01220703 1.07592773 C21.04959817 1.1917326 18.08731969 1.31452886 15.125 1.4375 C14.09246094 1.47681641 13.05992187 1.51613281 11.99609375 1.55664062 C11.00996094 1.59853516 10.02382813 1.64042969 9.0078125 1.68359375 C8.09660645 1.72025146 7.18540039 1.75690918 6.24658203 1.79467773 C3.96516519 1.86577065 3.96516519 1.86577065 2 3 C1.53101037 5.8159849 1.53101037 5.8159849 1.375 9.0625 C1.25125 11.021875 1.1275 12.98125 1 15 C8.92 15 16.84 15 25 15 C25.33 15.66 25.66 16.32 26 17 C17.42 17 8.84 17 0 17 C0 11.39 0 5.78 0 0 Z " fill="#DDE2FD" transform="translate(359,394)"/>
<path d="M0 0 C0.99 0.495 0.99 0.495 2 1 C2 2.98 2 4.96 2 7 C5.96 7 9.92 7 14 7 C14 22.18 14 37.36 14 53 C13.67 53 13.34 53 13 53 C12.67 38.48 12.34 23.96 12 9 C8.04 9.66 4.08 10.32 0 11 C0 7.37 0 3.74 0 0 Z " fill="#EDF3FE" transform="translate(308,387)"/>
<path d="M0 0 C-0.45822468 3.46941546 -0.89131683 6.67395049 -2 10 C-2.38503552 12.72897438 -2.7398891 15.45128163 -3.0625 18.1875 C-3.15337891 18.93708984 -3.24425781 19.68667969 -3.33789062 20.45898438 C-3.5613731 22.30565535 -3.78105513 24.15278554 -4 26 C-4.66 25.67 -5.32 25.34 -6 25 C-7.73520392 17.88566391 -8.0163524 8.8579333 -5 2 C-1.79503106 0 -1.79503106 0 0 0 Z " fill="#0C118C" transform="translate(592,400)"/>
<path d="M0 0 C0 0.66 0 1.32 0 2 C-4.66344559 1.90656397 -9.32636586 1.80049386 -13.98925781 1.68261719 C-15.57609138 1.64429415 -17.16301281 1.60944712 -18.75 1.578125 C-21.02896566 1.53254569 -23.30732468 1.47454162 -25.5859375 1.4140625 C-26.29744965 1.40251129 -27.00896179 1.39096008 -27.74203491 1.37905884 C-32.77225659 1.22774341 -32.77225659 1.22774341 -35 -1 C-4.06751825 -2.71167883 -4.06751825 -2.71167883 0 0 Z " fill="#858585" transform="translate(259,338)"/>
<path d="M0 0 C2 3.75 2 3.75 2 6 C1.01 6.66 0.02 7.32 -1 8 C-1.29019246 10.98484346 -1.29019246 10.98484346 -1.0625 14.4375 C-0.90932169 20.89096875 -1.56468812 26.72051053 -3 33 C-3.33 33 -3.66 33 -4 33 C-4.11651725 28.62522526 -4.18736 24.25085173 -4.25 19.875 C-4.28351562 18.6375 -4.31703125 17.4 -4.3515625 16.125 C-4.47325212 4.80786547 -4.47325212 4.80786547 0 0 Z " fill="#C9CEEE" transform="translate(864,410)"/>
<path d="M0 0 C1.47146484 0.48726563 1.47146484 0.48726563 2.97265625 0.984375 C7.163095 2.17712749 11.10343293 2.29681261 15.4375 2.25 C16.50581055 2.26160156 16.50581055 2.26160156 17.59570312 2.2734375 C22.6898934 2.25493 27.10048724 1.3919698 32 0 C32 1.32 32 2.64 32 4 C21.24683328 5.9808465 9.81194573 7.93880926 0 2 C0 1.34 0 0.68 0 0 Z " fill="#F1F5FE" transform="translate(782,441)"/>
<path d="M0 0 C3 1 3 1 4 3 C4.99 3.33 5.98 3.66 7 4 C7 5.32 7 6.64 7 8 C7.99 8 8.98 8 10 8 C10.66 8.66 11.32 9.32 12 10 C15.29157598 11.15828286 18.47200361 11.13374022 21.9375 11.125 C22.95714844 11.12757813 23.97679687 11.13015625 25.02734375 11.1328125 C27.82172619 11.00796493 30.30846948 10.7607546 33 10 C33.33 9.34 33.66 8.68 34 8 C34 8.99 34 9.98 34 11 C27.2930841 14.65831777 20.08581946 15.42640679 12.66015625 13.34375 C7.63101352 11.10428529 4.05017953 7.54888365 1 3 C0.67 2.01 0.34 1.02 0 0 Z " fill="#D7DCFA" transform="translate(591,425)"/>
<path d="M0 0 C0.33 0 0.66 0 1 0 C1.33 7.26 1.66 14.52 2 22 C5.58875 21.87625 9.1775 21.7525 12.875 21.625 C14.57052002 21.57400146 14.57052002 21.57400146 16.30029297 21.52197266 C17.63278076 21.46855713 17.63278076 21.46855713 18.9921875 21.4140625 C20.35899658 21.36693115 20.35899658 21.36693115 21.75341797 21.31884766 C24.19931186 21.20117489 24.19931186 21.20117489 26 19 C26.36894582 16.96939341 26.36894582 16.96939341 26.4140625 14.6484375 C26.45273437 13.79765625 26.49140625 12.946875 26.53125 12.0703125 C26.5621875 11.18085938 26.593125 10.29140625 26.625 9.375 C26.66367187 8.4778125 26.70234375 7.580625 26.7421875 6.65625 C26.83659357 4.4377073 26.92216748 2.21917597 27 0 C27.33 0 27.66 0 28 0 C28 7.59 28 15.18 28 23 C18.76 23 9.52 23 0 23 C0 15.41 0 7.82 0 0 Z " fill="#DFE5FE" transform="translate(472,388)"/>
<path d="M0 0 C8.25 0 16.5 0 25 0 C24.67 0.66 24.34 1.32 24 2 C17.07 2 10.14 2 3 2 C2.67 9.92 2.34 17.84 2 26 C1.34 26 0.68 26 0 26 C0 17.42 0 8.84 0 0 Z " fill="#E3E7FE" transform="translate(472,417)"/>
<path d="M0 0 C1.231394 3.69418201 0.64432764 6.2056261 0 10 C0.99 7.69 1.98 5.38 3 3 C3.66 3 4.32 3 5 3 C4.34 8.61 3.68 14.22 3 20 C0.8614515 17.8614515 0.57344937 16.86724686 0 14 C0 16.64 0 19.28 0 22 C-0.66 22.33 -1.32 22.66 -2 23 C-4.1760604 14.83977349 -3.38663813 7.61993579 0 0 Z " fill="#191D89" transform="translate(770,402)"/>
<path d="M0 0 C8.25 0.33 16.5 0.66 25 1 C25 1.99 25 2.98 25 4 C17.08 4 9.16 4 1 4 C0.67 2.68 0.34 1.36 0 0 Z " fill="#0A109A" transform="translate(358,411)"/>
<path d="M0 0 C1.32 0.66 2.64 1.32 4 2 C3.34 3.32 2.68 4.64 2 6 C-7.57 6 -17.14 6 -27 6 C-27 5.34 -27 4.68 -27 4 C-28.65 4 -30.3 4 -32 4 C-32 3.67 -32 3.34 -32 3 C-21.44 3 -10.88 3 0 3 C0 2.01 0 1.02 0 0 Z " fill="#E1E3FD" transform="translate(385,440)"/>
<path d="M0 0 C0.33 0 0.66 0 1 0 C0.91621094 1.15757812 0.83242188 2.31515625 0.74609375 3.5078125 C0.64286558 5.04685066 0.54002131 6.5859146 0.4375 8.125 C0.38142578 8.88554687 0.32535156 9.64609375 0.26757812 10.4296875 C-0.01498074 14.79993128 0.06852301 18.68070669 1 23 C1.33 21.68 1.66 20.36 2 19 C2.66 19 3.32 19 4 19 C5.26264601 23.29299643 4.62950412 25.87831311 3 30 C-1.77499567 25.8803959 -2.72807486 19.53796797 -3.375 13.5 C-2.86997564 8.7864393 -1.51400195 4.47892243 0 0 Z " fill="#21278F" transform="translate(586,402)"/>
<path d="M0 0 C0.33 0 0.66 0 1 0 C1.33 3.3 1.66 6.6 2 10 C2.66 10 3.32 10 4 10 C4 12.97 4 15.94 4 19 C4.66 19.33 5.32 19.66 6 20 C5.67 19.01 5.34 18.02 5 17 C4.931009 14.93854893 4.91532273 12.87498599 4.9375 10.8125 C4.94652344 9.72582031 4.95554687 8.63914062 4.96484375 7.51953125 C4.97644531 6.68808594 4.98804688 5.85664063 5 5 C5.33 5 5.66 5 6 5 C6.13277344 5.81984375 6.26554687 6.6396875 6.40234375 7.484375 C6.57894531 8.56203125 6.75554687 9.6396875 6.9375 10.75 C7.11152344 11.81734375 7.28554688 12.8846875 7.46484375 13.984375 C7.88704171 16.36347593 8.37202884 18.66915211 9 21 C7.68 21 6.36 21 5 21 C4.67 21.99 4.34 22.98 4 24 C-1.12146904 16.31779644 -0.3881303 8.88387128 0 0 Z " fill="#24298F" transform="translate(397,408)"/>
<path d="M0 0 C7.92 0 15.84 0 24 0 C23 10 23 10 21 12 C21 8.7 21 5.4 21 2 C15.06 1.67 9.12 1.34 3 1 C3 1.66 3 2.32 3 3 C7.29 3.33 11.58 3.66 16 4 C16 4.33 16 4.66 16 5 C10.72 5 5.44 5 0 5 C0 3.35 0 1.7 0 0 Z " fill="#141978" transform="translate(802,417)"/>
<path d="M0 0 C0.33 0 0.66 0 1 0 C1 10.23 1 20.46 1 31 C-0.65 31 -2.3 31 -4 31 C-4 22.42 -4 13.84 -4 5 C-3.67 5 -3.34 5 -3 5 C-3 12.59 -3 20.18 -3 28 C-2.01 28 -1.02 28 0 28 C0 18.76 0 9.52 0 0 Z " fill="#191D88" transform="translate(504,412)"/>
<path d="M0 0 C0.89912109 0.29777344 0.89912109 0.29777344 1.81640625 0.6015625 C1.27371094 0.97667969 0.73101563 1.35179687 0.171875 1.73828125 C-3.94805766 4.68533218 -6.82952122 7.017316 -9.18359375 11.6015625 C-10.87109375 13.4140625 -10.87109375 13.4140625 -12.18359375 14.6015625 C-13.17359375 14.2715625 -14.16359375 13.9415625 -15.18359375 13.6015625 C-13.40174835 7.93205442 -6.70591779 -1.22362006 0 0 Z " fill="#E2E7F8" transform="translate(606.18359375,393.3984375)"/>
<path d="M0 0 C0.99 0.33 1.98 0.66 3 1 C2.52949219 1.49628906 2.05898438 1.99257813 1.57421875 2.50390625 C-6.75353077 11.59029134 -7.55639775 19.11451904 -8 31 C-10.7241562 28.2758438 -10.3308802 26.6781266 -10.375 22.875 C-10.29462354 16.80657731 -9.10270769 13.08699749 -6 8 C-5.67 7.030625 -5.34 6.06125 -5 5.0625 C-4 3 -4 3 -1.875 2.1875 C-1.25625 2.125625 -0.6375 2.06375 0 2 C0 1.34 0 0.68 0 0 Z " fill="#E0E6FC" transform="translate(405,392)"/>
<path d="M0 0 C1.03125 0.20625 2.0625 0.4125 3.125 0.625 C2.17355402 2.44112488 1.21363067 4.25281081 0.25 6.0625 C-0.28367187 7.07183594 -0.81734375 8.08117187 -1.3671875 9.12109375 C-2.875 11.625 -2.875 11.625 -4.875 12.625 C-4.875 11.305 -4.875 9.985 -4.875 8.625 C-5.535 8.625 -6.195 8.625 -6.875 8.625 C-7.205 9.615 -7.535 10.605 -7.875 11.625 C-8.535 11.295 -9.195 10.965 -9.875 10.625 C-5.09600656 0.82193654 -5.09600656 0.82193654 0 0 Z " fill="#1C1E86" transform="translate(874.875,387.375)"/>
<path d="M0 0 C0.75410156 0.00451172 1.50820313 0.00902344 2.28515625 0.01367188 C4.14847127 0.02546501 6.01174555 0.04340058 7.875 0.0625 C8.205 0.7225 8.535 1.3825 8.875 2.0625 C7.885 2.7225 6.895 3.3825 5.875 4.0625 C5.545 4.3925 5.215 4.7225 4.875 5.0625 C2.52186445 5.13521741 0.16666332 5.14620868 -2.1875 5.125 C-3.47785156 5.11597656 -4.76820313 5.10695313 -6.09765625 5.09765625 C-7.09667969 5.08605469 -8.09570312 5.07445312 -9.125 5.0625 C-8.795 4.4025 -8.465 3.7425 -8.125 3.0625 C-8.785 2.4025 -9.445 1.7425 -10.125 1.0625 C-6.93675432 -0.53162284 -3.49603338 -0.03924735 0 0 Z " fill="#0C0F94" transform="translate(727.125,438.9375)"/>
<path d="M0 0 C4.06737077 2.95808783 7.15190105 6.35861438 10.3515625 10.1953125 C12.06632331 12.21772256 12.06632331 12.21772256 15 14 C14.34 15.65 13.68 17.3 13 19 C12.01 19 11.02 19 10 19 C9.40267181 16.23735711 9 13.83967231 9 11 C8.4225 10.71125 7.845 10.4225 7.25 10.125 C6.5075 9.75375 5.765 9.3825 5 9 C4.278125 8.773125 3.55625 8.54625 2.8125 8.3125 C1 7 1 7 0.25 3.375 C0.1675 2.26125 0.085 1.1475 0 0 Z " fill="#E3E9FC" transform="translate(553,429)"/>
<path d="M0 0 C0.33 0.66 0.66 1.32 1 2 C1.66 2 2.32 2 3 2 C3.33 2.99 3.66 3.98 4 5 C4.66 5.33 5.32 5.66 6 6 C6.38363893 20.17332706 6.38363893 20.17332706 4 26 C3.34 26.33 2.68 26.66 2 27 C1.95745644 25.00045254 1.95919217 22.99958364 2 21 C2.33 20.67 2.66 20.34 3 20 C3.69123072 13.80550932 2.61404253 9.55484037 0 4 C0 2.68 0 1.36 0 0 Z " fill="#0A0E9D" transform="translate(634,400)"/>
<path d="M0 0 C7.92 0 15.84 0 24 0 C24 1.32 24 2.64 24 4 C14.43 4 4.86 4 -5 4 C-4.67 3.34 -4.34 2.68 -4 2 C3.92 2 11.84 2 20 2 C13.4 1.67 6.8 1.34 0 1 C0 0.67 0 0.34 0 0 Z " fill="#0A0E82" transform="translate(360,438)"/>
<path d="M0 0 C0 0.66 0 1.32 0 2 C2.475 2.495 2.475 2.495 5 3 C5.33 3.99 5.66 4.98 6 6 C-0.52254335 6.25086705 -0.52254335 6.25086705 -2.84375 5.03125 C-5.6652628 3.68183084 -8.13949392 3.57785909 -11.25 3.375 C-12.32765625 3.30023438 -13.4053125 3.22546875 -14.515625 3.1484375 C-15.33546875 3.09945313 -16.1553125 3.05046875 -17 3 C-13.75378035 0.83585357 -12.30136005 0.65090516 -8.5 0.375 C-7.06140625 0.26285156 -7.06140625 0.26285156 -5.59375 0.1484375 C-3.73155727 0.04186623 -1.86523972 0 0 0 Z " fill="#11149D" transform="translate(806,388)"/>
<path d="M0 0 C3.93673644 1.31224548 6.22719294 2.91910327 9 6 C8.34 7.32 7.68 8.64 7 10 C3.12793601 9.42636089 0.81534937 7.65894107 -2 5 C-2 4.01 -2 3.02 -2 2 C-1.34 1.67 -0.68 1.34 0 1 C0 0.67 0 0.34 0 0 Z " fill="#0F158D" transform="translate(441,391)"/>
<path d="M0 0 C0.66 1.32 1.32 2.64 2 4 C-0.86336371 6.86336371 -2.95228346 6.30016187 -6.9375 6.3125 C-8.18402344 6.32925781 -9.43054688 6.34601563 -10.71484375 6.36328125 C-14 6 -14 6 -15.94140625 4.48046875 C-16.29074219 3.99191406 -16.64007812 3.50335938 -17 3 C-11.29014022 2.25983299 -5.75813575 1.89530662 0 2 C0 1.34 0 0.68 0 0 Z " fill="#0C0F95" transform="translate(620,438)"/>
<path d="M0 0 C0.33 0 0.66 0 1 0 C1 13.86 1 27.72 1 42 C-4 37 -4 37 -6 34 C-4.68 34.33 -3.36 34.66 -2 35 C-2 35.66 -2 36.32 -2 37 C-1.34 37 -0.68 37 0 37 C0 24.79 0 12.58 0 0 Z " fill="#D6DDFD" transform="translate(561,388)"/>
<path d="M0 0 C9.24 0 18.48 0 28 0 C28 0.99 28 1.98 28 3 C19.09 2.67 10.18 2.34 1 2 C0.67 1.34 0.34 0.68 0 0 Z " fill="#262988" transform="translate(472,411)"/>
<path d="M0 0 C0.66 0 1.32 0 2 0 C2 5.61 2 11.22 2 17 C0.68 17.33 -0.64 17.66 -2 18 C-2 14.37 -2 10.74 -2 7 C-1.34 7 -0.68 7 0 7 C0 4.69 0 2.38 0 0 Z " fill="#1A1E8F" transform="translate(357,394)"/>
<path d="M0 0 C2.70608417 1.35304209 2.96183047 2.80966544 4.125 5.5625 C4.47820313 6.38878906 4.83140625 7.21507812 5.1953125 8.06640625 C5.46085938 8.70449219 5.72640625 9.34257812 6 10 C5.01 10.495 5.01 10.495 4 11 C4 10.34 4 9.68 4 9 C3.01 9.495 3.01 9.495 2 10 C2.33 11.65 2.66 13.3 3 15 C-1.17950077 11.54110281 -2.32762134 8.01713599 -4 3 C-2.68 3.33 -1.36 3.66 0 4 C0 2.68 0 1.36 0 0 Z " fill="#1B1F8D" transform="translate(700,420)"/>
<path d="M0 0 C-1.98 0.99 -1.98 0.99 -4 2 C-3.01 2.99 -2.02 3.98 -1 5 C-5.95 5 -10.9 5 -16 5 C-15.67 3.68 -15.34 2.36 -15 1 C-13.43784452 0.83013455 -11.8752548 0.66426036 -10.3125 0.5 C-9.44238281 0.4071875 -8.57226562 0.314375 -7.67578125 0.21875 C-5.10276661 0.00840136 -2.58015636 -0.03719144 0 0 Z " fill="#0D108E" transform="translate(435,439)"/>
<path d="M0 0 C0.99 0.33 1.98 0.66 3 1 C5.64596875 9.21642928 5.05877572 15.72813327 3 24 C2.34 24 1.68 24 1 24 C1.01160156 22.77023437 1.02320313 21.54046875 1.03515625 20.2734375 C1.04454022 18.64062653 1.05363977 17.0078139 1.0625 15.375 C1.07087891 14.56675781 1.07925781 13.75851562 1.08789062 12.92578125 C1.1058955 8.49658082 0.89622662 4.36116576 0 0 Z " fill="#070A9B" transform="translate(747,403)"/>
<path d="M0 0 C0.86625 0.495 1.7325 0.99 2.625 1.5 C8.3907724 4.04266982 14.83958491 3.23069516 21 3 C21 3.66 21 4.32 21 5 C16.38 5.33 11.76 5.66 7 6 C7.66 6.66 8.32 7.32 9 8 C6.39417629 8.93065133 5.35801776 9.14917407 2.75 8.0625 C2.1725 7.711875 1.595 7.36125 1 7 C1.99 5.68 2.98 4.36 4 3 C2.35 2.67 0.7 2.34 -1 2 C-0.67 1.34 -0.34 0.68 0 0 Z " fill="#1B1F8D" transform="translate(599,435)"/>
<path d="M0 0 C2.1875 -0.4375 2.1875 -0.4375 5 0 C7.44432707 2.51699625 10 5.39004446 10 9 C8.68 9 7.36 9 6 9 C6 8.34 6 7.68 6 7 C4.35 6.67 2.7 6.34 1 6 C0.67 4.02 0.34 2.04 0 0 Z " fill="#15179A" transform="translate(402,429)"/>
<path d="M0 0 C0.33 0 0.66 0 1 0 C1 13.2 1 26.4 1 40 C-0.65 40 -2.3 40 -4 40 C-3.67 39.01 -3.34 38.02 -3 37 C-2.34 37 -1.68 37 -1 37 C-0.67 24.79 -0.34 12.58 0 0 Z " fill="#1F237F" transform="translate(529,403)"/>
<path d="M0 0 C0.33 0 0.66 0 1 0 C1.33 1.65 1.66 3.3 2 5 C2.66 3.35 3.32 1.7 4 0 C4.33 0 4.66 0 5 0 C5.027193 1.58323688 5.04648306 3.16661062 5.0625 4.75 C5.07410156 5.63171875 5.08570313 6.5134375 5.09765625 7.421875 C5.00826198 9.7818838 4.66912821 11.74498524 4 14 C2.68 13.67 1.36 13.34 0 13 C0 8.71 0 4.42 0 0 Z " fill="#08108D" transform="translate(696,410)"/>
<path d="M0 0 C1.32 1.32 2.64 2.64 4 4 C3.34 4.66 2.68 5.32 2 6 C1.75456859 8.64787789 1.62650614 11.19903823 1.5859375 13.8515625 C1.56657135 14.62559418 1.5472052 15.39962585 1.5272522 16.19711304 C1.4674017 18.67296275 1.42104989 21.14885883 1.375 23.625 C1.33682518 25.30210377 1.29777375 26.97918784 1.2578125 28.65625 C1.16169591 32.77067353 1.07768561 36.88518886 1 41 C0.67 41 0.34 41 0 41 C0 27.47 0 13.94 0 0 Z " fill="#DAE3FC" transform="translate(530,402)"/>
<path d="M0 0 C2.0625 0.4375 2.0625 0.4375 4 1 C4 2.32 4 3.64 4 5 C1.5 7.25 1.5 7.25 -1 9 C-1.66 8.67 -2.32 8.34 -3 8 C-2.67 7.01 -2.34 6.02 -2 5 C-3.32 5.33 -4.64 5.66 -6 6 C-4 4 -2 2 0 0 Z " fill="#191B7F" transform="translate(445,431)"/>
<path d="M0 0 C0.33 0 0.66 0 1 0 C1.33 6.27 1.66 12.54 2 19 C5.29960141 20.6498007 8.99127884 20.38258361 12.625 20.5625 C13.42679688 20.60568359 14.22859375 20.64886719 15.0546875 20.69335938 C17.0362511 20.79951457 19.01810271 20.90026855 21 21 C21 21.33 21 21.66 21 22 C14.07 22 7.14 22 0 22 C0 14.74 0 7.48 0 0 Z " fill="#CDD3F9" transform="translate(663,416)"/>
<path d="M0 0 C0.66 0.33 1.32 0.66 2 1 C2 6.94 2 12.88 2 19 C1.34 18.67 0.68 18.34 0 18 C-1.39360241 12.2862301 -1.88228934 5.64686801 0 0 Z " fill="#080FA5" transform="translate(586,407)"/>
<path d="M0 0 C0.804375 0.185625 1.60875 0.37125 2.4375 0.5625 C3.283125 0.706875 4.12875 0.85125 5 1 C5.33 0.67 5.66 0.34 6 0 C7.66614608 -0.04165365 9.33385392 -0.04165365 11 0 C11.33 0 11.66 0 12 0 C12.625 1.875 12.625 1.875 13 4 C12.34 4.66 11.68 5.32 11 6 C11 5.34 11 4.68 11 4 C9.1128125 4.3403125 9.1128125 4.3403125 7.1875 4.6875 C3.28216529 5.18517097 3.28216529 5.18517097 1 3.6875 C0 2 0 2 0 0 Z " fill="#EFF0F6" transform="translate(833,384)"/>
<path d="M0 0 C0.33 0.66 0.66 1.32 1 2 C0.38125 2.061875 -0.2375 2.12375 -0.875 2.1875 C-3.24679221 2.81375226 -3.24679221 2.81375226 -4.125 5.375 C-4.558125 6.674375 -4.558125 6.674375 -5 8 C-5.99 9.485 -5.99 9.485 -7 11 C-7.66 11 -8.32 11 -9 11 C-9.33 11.66 -9.66 12.32 -10 13 C-10.66 12.34 -11.32 11.68 -12 11 C-9.54905289 5.44451988 -4.98867152 3.04340338 0 0 Z " fill="#E2E2F7" transform="translate(787,394)"/>
<path d="M0 0 C0.96661363 3.12180401 0.98988909 5.52083795 0.5625 8.75 C0.46066406 9.54921875 0.35882813 10.3484375 0.25390625 11.171875 C0.17011719 11.77515625 0.08632813 12.3784375 0 13 C0.66 13.33 1.32 13.66 2 14 C2.144375 14.94875 2.28875 15.8975 2.4375 16.875 C3.0198057 20.11003166 3.48193513 21.02934054 6 23 C5.34 23.66 4.68 24.32 4 25 C0.04767535 19.26275454 -1.13938983 15.89498075 -1.125 8.9375 C-1.12757813 7.68839844 -1.13015625 6.43929688 -1.1328125 5.15234375 C-1 2 -1 2 0 0 Z " fill="#D7DCF9" transform="translate(404,406)"/>
<path d="M0 0 C0.79921875 0.00902344 1.5984375 0.01804687 2.421875 0.02734375 C3.02515625 0.03894531 3.6284375 0.05054688 4.25 0.0625 C4.25 0.3925 4.25 0.7225 4.25 1.0625 C3.51394531 1.14886719 2.77789063 1.23523438 2.01953125 1.32421875 C-4.25962258 2.22835054 -7.84308626 2.94309578 -11.75 8.0625 C-12.74 7.0725 -13.73 6.0825 -14.75 5.0625 C-9.56286347 1.40792654 -6.29166583 -0.0925245 0 0 Z " fill="#D4D9F4" transform="translate(724.75,391.9375)"/>
<path d="M0 0 C0.33 1.32 0.66 2.64 1 4 C-4.61 3.34 -10.22 2.68 -16 2 C-15.67 1.34 -15.34 0.68 -15 0 C-9.69211971 -1.19156496 -5.29063457 -0.83536335 0 0 Z " fill="#07109A" transform="translate(736,389)"/>
<path d="M0 0 C2.0234375 -0.328125 2.0234375 -0.328125 4.375 -0.25 C5.14585937 -0.23453125 5.91671875 -0.2190625 6.7109375 -0.203125 C8.9054806 -0.00838739 10.88364696 0.40084983 13 1 C12.67 1.99 12.34 2.98 12 4 C5.07 3.505 5.07 3.505 -2 3 C-1.34 2.01 -0.68 1.02 0 0 Z " fill="#090F9C" transform="translate(423,388)"/>
<path d="M0 0 C3.51005335 1.6380249 6.45543849 3.03134491 9 6 C6.03 5.505 6.03 5.505 3 5 C3.33 6.32 3.66 7.64 4 9 C1.36 7.68 -1.28 6.36 -4 5 C-4 4.67 -4 4.34 -4 4 C-2.35 4 -0.7 4 1 4 C0.67 2.68 0.34 1.36 0 0 Z " fill="#212593" transform="translate(736,389)"/>
<path d="M0 0 C6.27 0 12.54 0 19 0 C19.33 0.66 19.66 1.32 20 2 C13.10146045 3.94654051 6.70893951 3.2838943 0 1 C0 0.67 0 0.34 0 0 Z " fill="#080E9C" transform="translate(788,440)"/>
<path d="M0 0 C2.1875 0.3125 2.1875 0.3125 4 1 C4.125 3.875 4.125 3.875 4 7 C3.34 7.66 2.68 8.32 2 9 C1.34 7.68 0.68 6.36 0 5 C-0.99 5 -1.98 5 -3 5 C-3 3 -3 3 -1.75 1.3125 C-1.1725 0.879375 -0.595 0.44625 0 0 Z " fill="#0A10AC" transform="translate(562,428)"/>
<path d="M0 0 C0.66 0 1.32 0 2 0 C2 0.66 2 1.32 2 2 C1.34 2.61875 0.68 3.2375 0 3.875 C-2.4569098 5.9991076 -2.4569098 5.9991076 -2 10 C-2.48082031 10.47050781 -2.96164062 10.94101562 -3.45703125 11.42578125 C-5.57877929 13.5905014 -5.49401575 15.20784253 -5.6875 18.1875 C-5.75324219 19.08855469 -5.81898438 19.98960937 -5.88671875 20.91796875 C-5.92410156 21.60503906 -5.96148438 22.29210937 -6 23 C-6.33 23 -6.66 23 -7 23 C-7.70542917 14.75431686 -6.51417117 8.99012567 -2 2 C-1.34 1.34 -0.68 0.68 0 0 Z " fill="#BFC4ED" transform="translate(708,398)"/>
<path d="M0 0 C0.66 0 1.32 0 2 0 C0.66511872 3.59391114 -0.96022723 6.75490696 -3 10 C-5.25245881 7.31158141 -6.88213958 5.35358125 -8 2 C-5.525 2.99 -5.525 2.99 -3 4 C-2.67 3.34 -2.34 2.68 -2 2 C-1.34 1.34 -0.68 0.68 0 0 Z " fill="#D6E1FA" transform="translate(861,401)"/>
<path d="M0 0 C0.99 0.33 1.98 0.66 3 1 C2.625 2.9375 2.625 2.9375 2 5 C1.01 5.495 1.01 5.495 0 6 C-0.68472665 7.88764903 -0.68472665 7.88764903 -1.125 10.0625 C-1.29257812 10.79597656 -1.46015625 11.52945312 -1.6328125 12.28515625 C-1.75398437 12.85105469 -1.87515625 13.41695313 -2 14 C-2.66 13.34 -3.32 12.68 -4 12 C-3.828125 9.43359375 -3.828125 9.43359375 -3.25 6.4375 C-3.06953125 5.44621094 -2.8890625 4.45492188 -2.703125 3.43359375 C-2.47109375 2.63050781 -2.2390625 1.82742188 -2 1 C-1.34 0.67 -0.68 0.34 0 0 Z " fill="#090E9D" transform="translate(773,400)"/>
<path d="M0 0 C4.12751449 0.60698743 7.3321148 2.03810791 11 4 C10.01 4.66 9.02 5.32 8 6 C7.67 6.99 7.34 7.98 7 9 C5.02 8.01 3.04 7.02 1 6 C2.32 5.67 3.64 5.34 5 5 C4.67 4.34 4.34 3.68 4 3 C1.97536745 2.34786708 1.97536745 2.34786708 0 2 C0 1.34 0 0.68 0 0 Z " fill="#1A1F8E" transform="translate(806,388)"/>
<path d="M0 0 C0 1.32 0 2.64 0 4 C-1.65 4.33 -3.3 4.66 -5 5 C-5 4.34 -5 3.68 -5 3 C-5.99 3.495 -5.99 3.495 -7 4 C-9.55157655 4.0716735 -12.07472971 4.09308442 -14.625 4.0625 C-15.33140625 4.05798828 -16.0378125 4.05347656 -16.765625 4.04882812 C-18.51045275 4.03703875 -20.255237 4.01910324 -22 4 C-22 3.67 -22 3.34 -22 3 C-21.05898438 2.95101563 -20.11796875 2.90203125 -19.1484375 2.8515625 C-17.28058594 2.73941406 -17.28058594 2.73941406 -15.375 2.625 C-14.14523437 2.55539062 -12.91546875 2.48578125 -11.6484375 2.4140625 C-7.66370026 1.96183322 -3.92988673 0 0 0 Z " fill="#BEC3E8" transform="translate(814,441)"/>
<path d="M0 0 C2.50415096 3.75622643 2.52355573 7.65221112 2 12 C1.17563809 15.07348805 0.15293081 18.03532078 -1 21 C-1.5625 19.0625 -1.5625 19.0625 -2 17 C-1.67 16.67 -1.34 16.34 -1 16 C-0.92703518 13.28206055 -1.00373131 10.57742685 -1.0625 7.859375 C-1.00241086 5.11029664 -0.62405124 2.67171936 0 0 Z " fill="#D2D1F6" transform="translate(746,407)"/>
<path d="M0 0 C2.93193923 2.82722711 5.47780243 5.80521641 8 9 C8.66 9.66 9.32 10.32 10 11 C7.375 11.0625 7.375 11.0625 4 10 C1.65285261 7.19822496 -0.19332308 4.17129459 -2 1 C-1.34 0.67 -0.68 0.34 0 0 Z " fill="#DEE3F8" transform="translate(770,429)"/>
<path d="M0 0 C0.66 0 1.32 0 2 0 C2 1.65 2 3.3 2 5 C1.01 5.33 0.02 5.66 -1 6 C-1.33 6.66 -1.66 7.32 -2 8 C-2.99 8 -3.98 8 -5 8 C-5.33 8.66 -5.66 9.32 -6 10 C-6.33 9.34 -6.66 8.68 -7 8 C-5.625 6 -5.625 6 -4 4 C-3.34 4 -2.68 4 -2 4 C-1.34 2.68 -0.68 1.36 0 0 Z " fill="#0D0FA0" transform="translate(408,394)"/>
<path d="M0 0 C0.33 0 0.66 0 1 0 C1 4.29 1 8.58 1 13 C0.01 13.495 0.01 13.495 -1 14 C-1.66 14.99 -2.32 15.98 -3 17 C-3.33 16.34 -3.66 15.68 -4 15 C-3.731875 14.34 -3.46375 13.68 -3.1875 13 C-1.51894278 8.78469755 -0.81190982 4.44822932 0 0 Z " fill="#DBDFF7" transform="translate(826,417)"/>
<path d="M0 0 C1.65 1.65 3.3 3.3 5 5 C4.34 5 3.68 5 3 5 C3 5.99 3 6.98 3 8 C1.125 7.6875 1.125 7.6875 -1 7 C-1.66 6.01 -2.32 5.02 -3 4 C-2.34 3.67 -1.68 3.34 -1 3 C-0.67 2.01 -0.34 1.02 0 0 Z " fill="#1E2098" transform="translate(550,417)"/>
<path d="M0 0 C1.98 0.66 3.96 1.32 6 2 C6 2.99 6 3.98 6 5 C6.639375 5.103125 7.27875 5.20625 7.9375 5.3125 C8.618125 5.539375 9.29875 5.76625 10 6 C10.33 6.99 10.66 7.98 11 9 C5.33644285 7.68289369 3.29411959 5.5536359 0 1 C0 0.67 0 0.34 0 0 Z " fill="#121592" transform="translate(531,402)"/>
<path d="M0 0 C2.375 0.3125 2.375 0.3125 5 1 C7 4 7 4 7 8 C3.64379729 6.61122646 1.92701272 5.08322035 0 2 C0 1.34 0 0.68 0 0 Z " fill="#0A0D99" transform="translate(739,394)"/>
<path d="M0 0 C0.66 0 1.32 0 2 0 C3.7265625 1.75 3.7265625 1.75 5.625 4 C6.25664063 4.7425 6.88828125 5.485 7.5390625 6.25 C8.02117188 6.8275 8.50328125 7.405 9 8 C6 9 6 9 3.875 8.1875 C2 7 2 7 1 5 C0.67 5 0.34 5 0 5 C0 3.35 0 1.7 0 0 Z " fill="#1A1B88" transform="translate(525,389)"/>
<path d="M0 0 C3.3 0 6.6 0 10 0 C10 1.32 10 2.64 10 4 C6.04 4 2.08 4 -2 4 C-2 3.67 -2 3.34 -2 3 C1.465 2.505 1.465 2.505 5 2 C3.35 1.67 1.7 1.34 0 1 C0 0.67 0 0.34 0 0 Z " fill="#0E0D84" transform="translate(330,389)"/>
<path d="M0 0 C0 1.32 0 2.64 0 4 C-2.97 4 -5.94 4 -9 4 C-9 3.34 -9 2.68 -9 2 C-3.375 -1.125 -3.375 -1.125 0 0 Z " fill="#7D7D7D" transform="translate(805,282)"/>
<path d="M0 0 C0.99 0.495 0.99 0.495 2 1 C2 3.31 2 5.62 2 8 C4.97 8 7.94 8 11 8 C11 8.33 11 8.66 11 9 C7.37 9.66 3.74 10.32 0 11 C0 7.37 0 3.74 0 0 Z " fill="#F4F9FA" transform="translate(308,387)"/>
<path d="M0 0 C0.99 0 1.98 0 3 0 C3.08096803 1.45742463 3.13917774 2.91612807 3.1875 4.375 C3.22230469 5.18710937 3.25710938 5.99921875 3.29296875 6.8359375 C3.19628906 7.55007813 3.09960938 8.26421875 3 9 C2.01 9.66 1.02 10.32 0 11 C0 7.37 0 3.74 0 0 Z " fill="#0D0D9E" transform="translate(468,390)"/>
<path d="M0 0 C2.40072955 2.88087546 4.47291037 5.56404834 6 9 C5.01 9 4.02 9 3 9 C2.34 9.66 1.68 10.32 1 11 C1 10.34 1 9.68 1 9 C0.34 8.67 -0.32 8.34 -1 8 C-0.7525 7.13375 -0.7525 7.13375 -0.5 6.25 C0.14462031 3.73335631 0.14462031 3.73335631 0 0 Z " fill="#DFE5F4" transform="translate(585,427)"/>
<path d="M0 0 C3.3 0.66 6.6 1.32 10 2 C10 2.33 10 2.66 10 3 C7.69 3 5.38 3 3 3 C2.71125 3.78375 2.4225 4.5675 2.125 5.375 C1 8 1 8 -1 10 C-1.125 2.25 -1.125 2.25 0 0 Z " fill="#E2E5F7" transform="translate(868,385)"/>
<path d="M0 0 C2.16874252 0.50603992 3.99967627 0.99983813 6 2 C5.34 3.65 4.68 5.3 4 7 C3.01 7 2.02 7 1 7 C0.67 4.69 0.34 2.38 0 0 Z " fill="#EBEFF3" transform="translate(562,441)"/>
<path d="M0 0 C0.25 6.625 0.25 6.625 -2 10 C-4 4.375 -4 4.375 -4 1 C-2 0 -2 0 0 0 Z " fill="#1015A2" transform="translate(700,406)"/>
<path d="M0 0 C0.33 0.66 0.66 1.32 1 2 C2.65 1.67 4.3 1.34 6 1 C3.38521048 3.56761548 2.05471424 3.9956345 -1.671875 4.29296875 C-3.03156035 4.27316751 -4.3910934 4.23759202 -5.75 4.1875 C-6.44738281 4.17396484 -7.14476562 4.16042969 -7.86328125 4.14648438 C-9.57585541 4.1112945 -11.28802941 4.05749155 -13 4 C-13 3.67 -13 3.34 -13 3 C-6.565 2.505 -6.565 2.505 0 2 C0 1.34 0 0.68 0 0 Z " fill="#CBCEF5" transform="translate(804,435)"/>
<path d="M0 0 C2.9375 1.25 2.9375 1.25 6 3 C6.875 5.1875 6.875 5.1875 7 7 C5.35 7 3.7 7 2 7 C1.34 4.69 0.68 2.38 0 0 Z " fill="#0C1098" transform="translate(701,428)"/>
<path d="M0 0 C2.64 0 5.28 0 8 0 C8 0.66 8 1.32 8 2 C9.65 2.33 11.3 2.66 13 3 C13 3.33 13 3.66 13 4 C11.39620659 4.05416188 9.79188594 4.09286638 8.1875 4.125 C7.29417969 4.14820313 6.40085937 4.17140625 5.48046875 4.1953125 C3 4 3 4 0 2 C0 1.34 0 0.68 0 0 Z " fill="#6D6D6D" transform="translate(256,336)"/>
<path d="M0 0 C0 0.66 0 1.32 0 2 C-3.05269846 3.52634923 -5.75845689 2.83794444 -9.125 2.5625 C-10.40632812 2.46066406 -11.68765625 2.35882813 -13.0078125 2.25390625 C-14.48894531 2.12822266 -14.48894531 2.12822266 -16 2 C-16 1.67 -16 1.34 -16 1 C-14.08351538 0.83125293 -12.16680367 0.66508357 -10.25 0.5 C-9.18265625 0.4071875 -8.1153125 0.314375 -7.015625 0.21875 C-4.6820782 0.04947717 -2.33967818 0 0 0 Z " fill="#BBC3E6" transform="translate(624,443)"/>
<path d="M0 0 C0.99 0.66 1.98 1.32 3 2 C2.34 3.32 1.68 4.64 1 6 C-1.88575819 5.60196439 -2.82189513 5.20990931 -4.75 2.9375 C-5.1625 2.298125 -5.575 1.65875 -6 1 C-4.02 1.66 -2.04 2.32 0 3 C0 2.01 0 1.02 0 0 Z " fill="#212278" transform="translate(447,395)"/>
<path d="M0 0 C0 0.66 0 1.32 0 2 C0.99 1.67 1.98 1.34 3 1 C3 1.66 3 2.32 3 3 C3.99 3 4.98 3 6 3 C5.67 3.99 5.34 4.98 5 6 C1 4 -3 2 -7 0 C-3.86650268 -1.04449911 -3.01031744 -0.93423645 0 0 Z " fill="#DDE0F8" transform="translate(812,387)"/>
<path d="M0 0 C-0.33 0.66 -0.66 1.32 -1 2 C-6.51547368 3.26396272 -11.43779559 2.81982605 -17 2 C-17 1.67 -17 1.34 -17 1 C-15.10440036 0.83069605 -13.20850769 0.66467136 -11.3125 0.5 C-10.25675781 0.4071875 -9.20101562 0.314375 -8.11328125 0.21875 C-5.39363975 0.0276585 -2.72460144 -0.04043935 0 0 Z " fill="#B9C1E5" transform="translate(737,443)"/>
<path d="M0 0 C3.96 0.33 7.92 0.66 12 1 C12 1.33 12 1.66 12 2 C8.7 2.33 5.4 2.66 2 3 C1.67 3.99 1.34 4.98 1 6 C-0.65 5.67 -2.3 5.34 -4 5 C-2.68 4.67 -1.36 4.34 0 4 C0 2.68 0 1.36 0 0 Z " fill="#282D93" transform="translate(418,438)"/>
<path d="M0 0 C1.10844919 3.32534757 0.84454356 5.62182575 0 9 C-1.32 8.67 -2.64 8.34 -4 8 C-3.67 5.69 -3.34 3.38 -3 1 C-2.01 0.67 -1.02 0.34 0 0 Z " fill="#0A1093" transform="translate(823,422)"/>
<path d="M0 0 C2.95749791 3.46741134 5.07848152 6.86873527 7 11 C3.50126729 9.60344703 2.29108169 8.28739516 0.75 4.875 C0.41484375 4.15054687 0.0796875 3.42609375 -0.265625 2.6796875 C-0.50796875 2.12539063 -0.7503125 1.57109375 -1 1 C-0.67 0.67 -0.34 0.34 0 0 Z " fill="#D9DFFA" transform="translate(842,397)"/>
<path d="M0 0 C2.02045442 0.60183749 4.02111039 1.27306096 6 2 C7.33332095 4.6666419 6.67102033 6.16680303 6 9 C3.59927045 6.11912454 1.52708963 3.43595166 0 0 Z " fill="#E4E8FB" transform="translate(846,392)"/>
<path d="M0 0 C0.66 0 1.32 0 2 0 C3.125 3.75 3.125 3.75 2 6 C-2.62 6 -7.24 6 -12 6 C-12 5.67 -12 5.34 -12 5 C-8.04 5 -4.08 5 0 5 C0 3.35 0 1.7 0 0 Z " fill="#A6A9DC" transform="translate(340,388)"/>
<path d="M0 0 C0.99 0.33 1.98 0.66 3 1 C3.33 2.98 3.66 4.96 4 7 C3.38125 7.12375 2.7625 7.2475 2.125 7.375 C-0.19120832 7.87197356 -0.19120832 7.87197356 -2 10 C-2.66 9.34 -3.32 8.68 -4 8 C-2.35 6.68 -0.7 5.36 1 4 C0.67 2.68 0.34 1.36 0 0 Z " fill="#DCDDF4" transform="translate(448,431)"/>
<path d="M0 0 C1.32 0 2.64 0 4 0 C5.125 3.75 5.125 3.75 4 6 C3.01 6 2.02 6 1 6 C0.67 4.02 0.34 2.04 0 0 Z " fill="#0E1294" transform="translate(402,429)"/>
<path d="M0 0 C0.99 0.33 1.98 0.66 3 1 C4.00496852 4.01490557 4.10335303 6.04181692 4.0625 9.1875 C4.05347656 10.08855469 4.04445313 10.98960937 4.03515625 11.91796875 C4.02355469 12.60503906 4.01195312 13.29210937 4 14 C3.67 14 3.34 14 3 14 C2.87625 12.9275 2.7525 11.855 2.625 10.75 C2.09251493 7.55508956 1.48157272 5.76560241 0 3 C0 2.01 0 1.02 0 0 Z " fill="#0D0FA1" transform="translate(747,403)"/>
<path d="M0 0 C1.32 0 2.64 0 4 0 C4 3 4 3 2.5 4.6875 C2.005 5.120625 1.51 5.55375 1 6 C0.01 5.67 -0.98 5.34 -2 5 C-1.34 3.35 -0.68 1.7 0 0 Z " fill="#E7EDF8" transform="translate(593,402)"/>
<path d="M0 0 C1.99954746 -0.04254356 4.00041636 -0.04080783 6 0 C7 1 7 1 7.0625 3.5625 C7.041875 4.366875 7.02125 5.17125 7 6 C5.83054208 5.19152271 4.66449539 4.37810888 3.5 3.5625 C2.8503125 3.11003906 2.200625 2.65757812 1.53125 2.19140625 C1.0259375 1.79824219 0.520625 1.40507812 0 1 C0 0.67 0 0.34 0 0 Z " fill="#808080" transform="translate(713,281)"/>
<path d="M0 0 C2.64 1.32 5.28 2.64 8 4 C4.08459419 4.97885145 2.74587132 4.86443184 -1 4 C-1.99 4 -2.98 4 -4 4 C-4.33 3.34 -4.66 2.68 -5 2 C-3.35 2 -1.7 2 0 2 C0 1.34 0 0.68 0 0 Z " fill="#22258D" transform="translate(708,433)"/>
<path d="M0 0 C0 1.32 0 2.64 0 4 C-1.98 4 -3.96 4 -6 4 C-6.33 3.01 -6.66 2.02 -7 1 C-4.50935112 0.31292445 -2.62113708 0 0 0 Z " fill="#0C109C" transform="translate(604,390)"/>
<path d="M0 0 C1.65 0 3.3 0 5 0 C4.04270084 1.12588014 3.08412105 2.2506715 2.125 3.375 C1.59132813 4.00148438 1.05765625 4.62796875 0.5078125 5.2734375 C-0.61432007 6.55836651 -1.79371975 7.79371975 -3 9 C-2.44271087 5.65626525 -1.64826111 2.96687001 0 0 Z " fill="#D9E0F6" transform="translate(590,392)"/>
<path d="M0 0 C0 0.66 0 1.32 0 2 C-4.455 3.485 -4.455 3.485 -9 5 C-9.33 4.01 -9.66 3.02 -10 2 C-8.7090864 1.66376204 -7.41723903 1.33110751 -6.125 1 C-5.40570312 0.814375 -4.68640625 0.62875 -3.9453125 0.4375 C-2 0 -2 0 0 0 Z " fill="#DEE8FA" transform="translate(789,386)"/>
<path d="M0 0 C1.32 0.66 2.64 1.32 4 2 C1.06171403 4.50298434 -1.17902761 5.46930939 -5 6 C-3.63016497 2.83884224 -3.0109362 2.0072908 0 0 Z " fill="#7C7C7C" transform="translate(620,197)"/>
<path d="M0 0 C0.66 0 1.32 0 2 0 C0.82744291 3.33727786 -0.18868404 5.77437487 -3 8 C-3.66 8 -4.32 8 -5 8 C-4.67 6.68 -4.34 5.36 -4 4 C-2.68 3.67 -1.36 3.34 0 3 C0 2.01 0 1.02 0 0 Z " fill="#D7DBF9" transform="translate(816,427)"/>
<path d="M0 0 C1.65 0.99 3.3 1.98 5 3 C4.34 4.32 3.68 5.64 3 7 C1.68 7 0.36 7 -1 7 C-1.33 6.34 -1.66 5.68 -2 5 C-0.68 5.33 0.64 5.66 2 6 C1.34 4.02 0.68 2.04 0 0 Z " fill="#222373" transform="translate(817,393)"/>
<path d="M0 0 C8.19256018 0.35010941 8.19256018 0.35010941 11.5625 3.0625 C12.036875 3.701875 12.51125 4.34125 13 5 C9.70342144 5 7.83635572 4.25666731 4.8125 3 C3.91144531 2.62875 3.01039063 2.2575 2.08203125 1.875 C1.05142578 1.441875 1.05142578 1.441875 0 1 C0 0.67 0 0.34 0 0 Z " fill="#CDD5F2" transform="translate(619,387)"/>
<path d="M0 0 C2.31 0 4.62 0 7 0 C7.33 0.99 7.66 1.98 8 3 C6.02 3.33 4.04 3.66 2 4 C1.34 2.68 0.68 1.36 0 0 Z " fill="#0A1190" transform="translate(609,387)"/>
<path d="M0 0 C3.3 0.99 6.6 1.98 10 3 C10 3.66 10 4.32 10 5 C6.28111761 4.49287967 3.26545761 3.88391785 0 2 C0 1.34 0 0.68 0 0 Z " fill="#D6DFF8" transform="translate(782,441)"/>
<path d="M0 0 C1.98 0 3.96 0 6 0 C6 1.32 6 2.64 6 4 C4.35 4 2.7 4 1 4 C0.67 2.68 0.34 1.36 0 0 Z " fill="#090D97" transform="translate(412,438)"/>
<path d="M0 0 C0.33 0.99 0.66 1.98 1 3 C-0.9628843 6.1708131 -2.12536 7.74158364 -5.75 8.8125 C-6.4925 8.874375 -7.235 8.93625 -8 9 C-6.8553125 7.88625 -6.8553125 7.88625 -5.6875 6.75 C-3.5606298 4.5736677 -1.7440044 2.47832204 0 0 Z " fill="#DDE2FB" transform="translate(748,432)"/>
<path d="M0 0 C1.98 0.66 3.96 1.32 6 2 C6 2.66 6 3.32 6 4 C6.66 4 7.32 4 8 4 C8.33 4.99 8.66 5.98 9 7 C4.58110387 5.64978174 2.65654657 3.73884332 0 0 Z " fill="#24278C" transform="translate(774,434)"/>
<path d="M0 0 C0.99 0 1.98 0 3 0 C3 1.98 3 3.96 3 6 C3.66 6 4.32 6 5 6 C5 6.66 5 7.32 5 8 C3.0625 7.375 3.0625 7.375 1 6 C0.25 2.875 0.25 2.875 0 0 Z " fill="#0F1495" transform="translate(848,399)"/>
<path d="M0 0 C2.66735273 2.48952921 4.55746343 4.63408134 6 8 C5.01 8 4.02 8 3 8 C0.19744677 5.0936485 0 4.21174952 0 0 Z " fill="#D8DFF8" transform="translate(698,429)"/>
<path d="M0 0 C1.33333333 2.66666667 2.66666667 5.33333333 4 8 C3.01 8 2.02 8 1 8 C1 7.34 1 6.68 1 6 C0.34 6 -0.32 6 -1 6 C-1.042721 4.33388095 -1.04063832 2.66617115 -1 1 C-0.67 0.67 -0.34 0.34 0 0 Z " fill="#090D9C" transform="translate(590,426)"/>
<path d="M0 0 C3 1 3 1 4 3 C4.99 3.33 5.98 3.66 7 4 C7 4.99 7 5.98 7 7 C5.1875 6.875 5.1875 6.875 3 6 C1.25 2.9375 1.25 2.9375 0 0 Z " fill="#DEE5FB" transform="translate(591,425)"/>
<path d="M0 0 C0.99 0 1.98 0 3 0 C3.33 0.99 3.66 1.98 4 3 C2.0625 6.1875 2.0625 6.1875 0 9 C-1 6 -1 6 0 3 C0 2.01 0 1.02 0 0 Z " fill="#E3E8F8" transform="translate(700,392)"/>
<path d="M0 0 C1.1875 2.0625 1.1875 2.0625 2 4 C-0.64 3.34 -3.28 2.68 -6 2 C-6 1.34 -6 0.68 -6 0 C-3 -1 -3 -1 0 0 Z " fill="#1F2593" transform="translate(622,391)"/>
<path d="M0 0 C0 0.66 0 1.32 0 2 C-2.70879335 3.35439668 -5.00933268 3.06501451 -8 3 C-6 0 -6 0 -4 -0.75 C-2 -1 -2 -1 0 0 Z " fill="#0B0FA1" transform="translate(718,390)"/>
<path d="M0 0 C2.625 0.9375 2.625 0.9375 5 2 C2.53721199 4.46278801 0.29323018 4.99771255 -3 6 C-2.625 3.5625 -2.625 3.5625 -2 1 C-1.34 0.67 -0.68 0.34 0 0 Z " fill="#7C7C7C" transform="translate(603,289)"/>
<path d="M0 0 C1.98 1.65 3.96 3.3 6 5 C5.67 5.66 5.34 6.32 5 7 C3.0625 6.3125 3.0625 6.3125 1 5 C0.25 2.375 0.25 2.375 0 0 Z " fill="#D9DFF4" transform="translate(547,422)"/>
<path d="M0 0 C0.66 0 1.32 0 2 0 C1.34 4.29 0.68 8.58 0 13 C-0.33 13 -0.66 13 -1 13 C-1.02686553 11.02090602 -1.04633375 9.04171029 -1.0625 7.0625 C-1.07410156 5.96035156 -1.08570313 4.85820312 -1.09765625 3.72265625 C-1 1 -1 1 0 0 Z " fill="#252C8A" transform="translate(773,405)"/>
<path d="M0 0 C0.33 0 0.66 0 1 0 C1.375 2.1875 1.375 2.1875 1 5 C-0.83961648 6.99022836 -2.79186148 8.38989899 -5 10 C-3.66654496 6.40992874 -2.1056769 3.20429093 0 0 Z " fill="#D9DDF9" transform="translate(870,400)"/>
<path d="M0 0 C1.98 0 3.96 0 6 0 C5.67 1.32 5.34 2.64 5 4 C3.35 3.67 1.7 3.34 0 3 C0 2.01 0 1.02 0 0 Z " fill="#0C0D94" transform="translate(781,391)"/>
<path d="M0 0 C2.31 0 4.62 0 7 0 C7.33 1.32 7.66 2.64 8 4 C7.38125 3.814375 6.7625 3.62875 6.125 3.4375 C3.95839822 2.76313824 3.95839822 2.76313824 2 4 C1.34 2.68 0.68 1.36 0 0 Z " fill="#23227D" transform="translate(837,388)"/>
<path d="M0 0 C0 0.33 0 0.66 0 1 C-3.3 1 -6.6 1 -10 1 C-10 0.34 -10 -0.32 -10 -1 C-6.18510326 -2.46726798 -3.70988378 -1.43336419 0 0 Z " fill="#D7DBFB" transform="translate(804,386)"/>
<path d="M0 0 C0.66 0.33 1.32 0.66 2 1 C0.3125 3.5 0.3125 3.5 -2 6 C-4.75 6.3125 -4.75 6.3125 -7 6 C-2.25 2 -2.25 2 0 2 C0 1.34 0 0.68 0 0 Z " fill="#DCDFFA" transform="translate(631,437)"/>
<path d="M0 0 C-0.33 1.32 -0.66 2.64 -1 4 C-2.65 4 -4.3 4 -6 4 C-5.67 3.01 -5.34 2.02 -5 1 C-2 0 -2 0 0 0 Z " fill="#0C0E99" transform="translate(443,436)"/>
<path d="M0 0 C2 3.75 2 3.75 2 6 C0.02 6.99 0.02 6.99 -2 8 C-2.20086443 4.28400809 -2.1519437 3.22791555 0 0 Z " fill="#E8E9F9" transform="translate(864,410)"/>
<path d="M0 0 C0.66 0.66 1.32 1.32 2 2 C0.02 4.97 0.02 4.97 -2 8 C-2.33 7.34 -2.66 6.68 -3 6 C-2.67 5.34 -2.34 4.68 -2 4 C-2.66 3.67 -3.32 3.34 -4 3 C-2.68 2.67 -1.36 2.34 0 2 C0 1.34 0 0.68 0 0 Z " fill="#1A1994" transform="translate(863,408)"/>
<path d="M0 0 C3.39417765 3.12621626 5.6062718 5.56541027 7 10 C4.06799526 7.14723863 1.35684596 4.34920216 -1 1 C-0.67 0.67 -0.34 0.34 0 0 Z " fill="#CDD5F5" transform="translate(542,405)"/>
<path d="M0 0 C0.66 0.33 1.32 0.66 2 1 C1.19185349 2.33597652 0.37836819 3.668725 -0.4375 5 C-0.88996094 5.7425 -1.34242188 6.485 -1.80859375 7.25 C-2.20175781 7.8275 -2.59492188 8.405 -3 9 C-3.33 9 -3.66 9 -4 9 C-4 7.02 -4 5.04 -4 3 C-3.01 3 -2.02 3 -1 3 C-0.67 2.01 -0.34 1.02 0 0 Z " fill="#181C88" transform="translate(407,399)"/>
<path d="M0 0 C1.65 0 3.3 0 5 0 C5 1.32 5 2.64 5 4 C3.68 4 2.36 4 1 4 C0.67 2.68 0.34 1.36 0 0 Z " fill="#050DB8" transform="translate(322,390)"/>
<path d="M0 0 C0.99 0.99 1.98 1.98 3 3 C0.525 4.485 0.525 4.485 -2 6 C-2.33 5.01 -2.66 4.02 -3 3 C-2.01 2.01 -1.02 1.02 0 0 Z " fill="#7D7D7D" transform="translate(624,201)"/>
<path d="M0 0 C2.97 1.98 2.97 1.98 6 4 C5.34 4.66 4.68 5.32 4 6 C3.34 5.67 2.68 5.34 2 5 C2 4.34 2 3.68 2 3 C1.01 3.33 0.02 3.66 -1 4 C-0.67 2.68 -0.34 1.36 0 0 Z " fill="#E2E7FB" transform="translate(591,436)"/>
<path d="M0 0 C1.65 0 3.3 0 5 0 C3.35 1.65 1.7 3.3 0 5 C-0.33 4.01 -0.66 3.02 -1 2 C-0.67 1.34 -0.34 0.68 0 0 Z " fill="#1E228D" transform="translate(816,434)"/>
<path d="M0 0 C0.66 0.33 1.32 0.66 2 1 C1.67 1.66 1.34 2.32 1 3 C1.66 3 2.32 3 3 3 C2.34 4.32 1.68 5.64 1 7 C0.34 6.34 -0.32 5.68 -1 5 C-0.625 2.375 -0.625 2.375 0 0 Z " fill="#0C0FC2" transform="translate(563,430)"/>
<path d="M0 0 C0.33 0 0.66 0 1 0 C1.33 2.64 1.66 5.28 2 8 C1.01 7.67 0.02 7.34 -1 7 C-1.04254356 5.00045254 -1.04080783 2.99958364 -1 1 C-0.67 0.67 -0.34 0.34 0 0 Z " fill="#0D0EA6" transform="translate(401,420)"/>
<path d="M0 0 C1.32 0 2.64 0 4 0 C3.67 1.65 3.34 3.3 3 5 C2.67 4.34 2.34 3.68 2 3 C1.67 3.66 1.34 4.32 1 5 C0.34 5 -0.32 5 -1 5 C-0.67 3.35 -0.34 1.7 0 0 Z " fill="#1B1FB5" transform="translate(820,420)"/>
<path d="M0 0 C0.99 0 1.98 0 3 0 C3 1.65 3 3.3 3 5 C2.01 5.33 1.02 5.66 0 6 C0 4.02 0 2.04 0 0 Z " fill="#030EB4" transform="translate(469,411)"/>
<path d="M0 0 C4.875 4.75 4.875 4.75 6 7 C3.13275314 6.42655063 2.1385485 6.1385485 0 4 C0 2.68 0 1.36 0 0 Z " fill="#DBDFF8" transform="translate(537,410)"/>
<path d="M0 0 C0.99 0.33 1.98 0.66 3 1 C3.33 2.65 3.66 4.3 4 6 C2.68 6 1.36 6 0 6 C0 4.02 0 2.04 0 0 Z " fill="#070FB6" transform="translate(527,396)"/>
<path d="M0 0 C0.556875 0.226875 1.11375 0.45375 1.6875 0.6875 C-2.74326923 3.76442308 -2.74326923 3.76442308 -5.625 3.375 C-6.4603125 3.0346875 -6.4603125 3.0346875 -7.3125 2.6875 C-2.88173077 -0.38942308 -2.88173077 -0.38942308 0 0 Z " fill="#D0D3F4" transform="translate(606.3125,393.3125)"/>
<path d="M0 0 C2.475 0.495 2.475 0.495 5 1 C6 4 6 4 5 7 C2.46447088 5.73223544 2.15080425 4.53176935 1 2 C0.67 1.34 0.34 0.68 0 0 Z " fill="#CDD2EF" transform="translate(446,393)"/>
<path d="M0 0 C0.66 0.66 1.32 1.32 2 2 C3.31747324 2.69748583 4.64914193 3.36959957 6 4 C2.52176885 5.15941038 0.54104422 4.70820884 -3 4 C-2.01 2.68 -1.02 1.36 0 0 Z " fill="#121A88" transform="translate(596,391)"/>
<path d="M0 0 C1.98 0.66 3.96 1.32 6 2 C4.68 2.99 3.36 3.98 2 5 C2 4.34 2 3.68 2 3 C1.01 3 0.02 3 -1 3 C-0.67 2.01 -0.34 1.02 0 0 Z " fill="#F2F0FC" transform="translate(593,387)"/>
<path d="M0 0 C0.66 0 1.32 0 2 0 C2 0.66 2 1.32 2 2 C3.32 2.66 4.64 3.32 6 4 C2.23312136 4 1.08809695 3.76462683 -2 2 C-1.34 1.34 -0.68 0.68 0 0 Z " fill="#848484" transform="translate(801,195)"/>
</svg>
